<svg width="98" height="108" viewBox="0 0 98 108" fill="none" xmlns="http://www.w3.org/2000/svg">
<rect width="75.7917" height="95.9466" rx="4" transform="matrix(-0.996782 -0.0801591 -0.0801591 0.996782 97.6201 11.3594)" fill="#FF854D"/>
<g filter="url(#filter0_dd_8877_14662)">
<path fill-rule="evenodd" clip-rule="evenodd" d="M9.5 2H84.5C88.366 2 91.5 5.134 91.5 9V97C91.5 100.866 88.366 104 84.5 104H9.5C5.63401 104 2.5 100.866 2.5 97V9C2.5 5.13401 5.634 2 9.5 2ZM9.5 5C7.29086 5 5.5 6.79086 5.5 9V97C5.5 99.2091 7.29086 101 9.5 101H84.5C86.7091 101 88.5 99.2091 88.5 97V9C88.5 6.79086 86.7091 5 84.5 5H9.5Z" fill="white"/>
</g>
<g clip-path="url(#clip0_8877_14662)">
<path d="M5.5 9C5.5 6.79086 7.29086 5 9.5 5H84.5C86.7091 5 88.5 6.79086 88.5 9V97C88.5 99.2091 86.7091 101 84.5 101H9.5C7.29086 101 5.5 99.2091 5.5 97V9Z" fill="url(#paint0_linear_8877_14662)"/>
<g opacity="0.25">
<path d="M41.4894 42.3048V58.4421L31.8042 58.4492L26.7122 58.4529H26.7118H25.4451C24.9518 58.445 24.4487 58.5348 23.9847 58.7248C23.0601 59.0998 22.2966 59.8587 21.923 60.7949C21.547 61.7244 21.5628 62.8058 21.9834 63.723C22.1901 64.1854 22.4879 64.5894 22.8335 64.9287L22.8334 64.9288L22.8422 64.937C22.946 65.0341 23.0678 65.1383 23.1752 65.2302C23.2313 65.2782 23.2834 65.3228 23.327 65.3612C23.4743 65.5023 23.6128 65.6388 23.7386 65.7787L23.7397 65.78C24.7874 66.9373 25.3692 68.5136 25.3009 70.0758L25.3008 70.0758L25.3006 70.0856C25.263 71.6502 24.5843 73.1884 23.4628 74.272L23.4589 74.2758C22.3484 75.3724 20.8033 76.0034 19.2441 76.0034H19.243C17.6843 76.0068 16.1359 75.3759 15.0256 74.2796L15.0256 74.2795L15.0211 74.2752C13.8965 73.1919 13.2175 71.6537 13.1764 70.0846L13.1765 70.0846L13.1761 70.0747C13.1044 68.5129 13.6861 66.9297 14.7373 65.7688L14.7374 65.769L14.7463 65.7586C14.9368 65.5363 15.1443 65.3533 15.3861 65.14C15.462 65.0732 15.5412 65.0033 15.6244 64.9283L15.63 64.9232L15.6354 64.918C15.9894 64.5789 16.284 64.1729 16.4865 63.7149C16.908 62.7991 16.9139 61.7256 16.5433 60.807C16.1738 59.8747 15.414 59.1186 14.4917 58.7507C14.0251 58.5582 13.5258 58.479 13.0472 58.479H11.776H11.7756L6.91848 58.4826C6.61889 57.0332 6.37184 55.4955 6.18325 53.8692L6.1832 53.8688C5.27777 46.1181 7.72185 36.0762 13.6617 27.9742C19.5127 19.9935 28.7414 13.9118 41.4894 13.7513V29.9558C41.4894 30.6984 41.1897 31.371 40.7045 31.8591C40.2199 32.3467 39.5491 32.6475 38.8131 32.6475C38.0006 32.6475 37.2333 32.2542 36.6954 31.5938L36.3077 31.9096L36.6953 31.5938C35.3926 29.9947 33.4032 28.9711 31.1856 28.9711C27.2453 28.9711 24.0589 32.1803 24.0589 36.1303C24.0589 40.0843 27.2454 43.2896 31.1856 43.2896C33.4023 43.2896 35.392 42.2704 36.6952 40.6671C36.9654 40.3372 37.2924 40.0708 37.6501 39.8925C38.0114 39.7123 38.4061 39.6132 38.8131 39.6132C40.288 39.6132 41.4894 40.8153 41.4894 42.3048Z" stroke="white"/>
<mask id="path-5-outside-1_8877_14662" maskUnits="userSpaceOnUse" x="39.9189" y="40.3838" width="51" height="62" fill="black">
<rect fill="white" x="39.9189" y="40.3838" width="51" height="62"/>
<path d="M89.2952 58.938L72.2028 58.9342C71.3578 58.9007 70.4868 59.0423 69.7196 58.7068C68.9487 58.3973 68.3186 57.7634 68.0073 56.9879C67.696 56.2198 67.7071 55.3212 68.0555 54.5643C68.226 54.184 68.4743 53.841 68.7708 53.5539C68.919 53.4122 69.0858 53.278 69.2489 53.1326C69.4046 52.9834 69.5565 52.8343 69.7011 52.6739C70.8611 51.395 71.506 49.6538 71.4319 47.9237C71.3874 46.1899 70.6387 44.4934 69.3971 43.2928C68.1667 42.081 66.4581 41.3801 64.7347 41.3838C63.0113 41.3801 61.299 42.081 60.0685 43.2928C58.8306 44.4934 58.0819 46.1899 58.0412 47.9237C57.9633 49.6538 58.6082 51.395 59.7683 52.6739C59.9091 52.8343 60.0648 52.9834 60.2205 53.1326C60.3835 53.2742 60.5503 53.4085 60.6986 53.5502C60.9988 53.841 61.2434 54.184 61.4139 54.5643C61.766 55.3212 61.7734 56.2198 61.4621 56.9879C61.1544 57.7634 60.5207 58.3973 59.7498 58.7068C58.9826 59.0423 58.1116 58.9044 57.2666 58.9342L52.1742 58.938L42.0598 58.9417H41.9189V59.0834L41.9264 69.2586L41.9301 74.3817V75.6606C41.9227 76.0931 42.0005 76.5331 42.1636 76.9358C42.486 77.7412 43.142 78.4086 43.9463 78.733C44.7468 79.0611 45.6808 79.0462 46.4665 78.6808C46.8631 78.5018 47.2152 78.2408 47.5154 77.9313C47.6636 77.771 47.7971 77.6032 47.9342 77.4466C48.0787 77.2937 48.227 77.1409 48.3827 76.9992C49.628 75.8582 51.3217 75.2244 53.0081 75.2989C54.6944 75.34 56.3474 76.0782 57.5149 77.3012C58.6972 78.513 59.3754 80.1946 59.3754 81.8948C59.3791 83.595 58.7009 85.2803 57.5186 86.4921C56.3511 87.7188 54.6981 88.4571 53.0081 88.5018C51.3217 88.5801 49.6206 87.9463 48.3715 86.8016C48.0491 86.522 47.7897 86.1976 47.5006 85.8732C47.2041 85.56 46.852 85.3027 46.4591 85.1275C45.6771 84.7621 44.7505 84.7546 43.9574 85.079C43.1568 85.3997 42.5045 86.0634 42.1895 86.865C42.0264 87.264 41.956 87.7002 41.956 88.129V89.4079L41.9597 94.5309L41.9634 101H42.0153L42.019 94.5309L42.0227 89.4079C42.0524 88.5615 41.9152 87.6815 42.2525 86.8911C42.5601 86.1044 43.2013 85.4556 43.9833 85.1461C44.7616 84.8255 45.666 84.8366 46.4295 85.1909C46.8149 85.3661 47.1596 85.6196 47.4487 85.9217C47.7267 86.2386 48.0009 86.5779 48.3234 86.8575C49.5835 88.0134 51.3032 88.6584 53.0118 88.5839C54.7204 88.5429 56.3956 87.7934 57.5816 86.5555C58.7787 85.3251 59.4681 83.6174 59.4644 81.8948C59.4718 80.1722 58.7824 78.4608 57.5853 77.2304C56.3993 75.9887 54.7241 75.2393 53.0118 75.1945C51.2995 75.1162 49.5761 75.7576 48.3085 76.9171C48.1492 77.0626 48.0009 77.2154 47.8527 77.372C47.7118 77.5324 47.5784 77.7002 47.4339 77.853C47.1448 78.155 46.8001 78.4049 46.4221 78.5764C45.6623 78.9306 44.7616 78.9418 43.9907 78.6248C43.2161 78.3116 42.5824 77.6666 42.2747 76.891C41.9375 76.108 42.082 75.2281 42.0487 74.3817L42.0524 69.2586L42.0598 59.0834H41.9894L42.0598 59.0125V59.0834L52.1742 59.0871L57.2666 59.0908H58.5378C58.9677 59.0945 59.4088 59.02 59.8091 58.8559C60.6207 58.5315 61.2879 57.8641 61.6103 57.0513C61.9402 56.2385 61.9327 55.2914 61.5658 54.4935C61.3879 54.0945 61.1248 53.7366 60.8135 53.4308C60.6541 53.278 60.491 53.1475 60.3353 53.0058C60.1797 52.8641 60.0314 52.715 59.8906 52.5584C58.7602 51.313 58.1375 49.6128 58.2117 47.9275C58.2561 46.2421 58.9863 44.5904 60.1945 43.4196C61.3953 42.2414 63.0557 41.5665 64.7347 41.5702C66.4099 41.5665 68.074 42.2414 69.2748 43.4233C70.4831 44.5904 71.2132 46.2421 71.2577 47.9275C71.3318 49.6128 70.7055 51.313 69.5751 52.5584C69.4379 52.715 69.286 52.8641 69.134 53.0058C68.9783 53.1475 68.8153 53.278 68.6559 53.4308C68.3446 53.7366 68.0814 54.0945 67.9035 54.4972C67.5366 55.2914 67.5255 56.2422 67.8591 57.0513C68.1852 57.8641 68.8486 58.5315 69.6566 58.8559C70.0606 59.02 70.5016 59.0983 70.9315 59.0908H72.2028L89.2952 59.0871H89.4842C89.4953 59.0386 89.5064 58.9864 89.5176 58.938H89.2952Z"/>
</mask>
<path d="M89.2952 58.938L72.2028 58.9342C71.3578 58.9007 70.4868 59.0423 69.7196 58.7068C68.9487 58.3973 68.3186 57.7634 68.0073 56.9879C67.696 56.2198 67.7071 55.3212 68.0555 54.5643C68.226 54.184 68.4743 53.841 68.7708 53.5539C68.919 53.4122 69.0858 53.278 69.2489 53.1326C69.4046 52.9834 69.5565 52.8343 69.7011 52.6739C70.8611 51.395 71.506 49.6538 71.4319 47.9237C71.3874 46.1899 70.6387 44.4934 69.3971 43.2928C68.1667 42.081 66.4581 41.3801 64.7347 41.3838C63.0113 41.3801 61.299 42.081 60.0685 43.2928C58.8306 44.4934 58.0819 46.1899 58.0412 47.9237C57.9633 49.6538 58.6082 51.395 59.7683 52.6739C59.9091 52.8343 60.0648 52.9834 60.2205 53.1326C60.3835 53.2742 60.5503 53.4085 60.6986 53.5502C60.9988 53.841 61.2434 54.184 61.4139 54.5643C61.766 55.3212 61.7734 56.2198 61.4621 56.9879C61.1544 57.7634 60.5207 58.3973 59.7498 58.7068C58.9826 59.0423 58.1116 58.9044 57.2666 58.9342L52.1742 58.938L42.0598 58.9417H41.9189V59.0834L41.9264 69.2586L41.9301 74.3817V75.6606C41.9227 76.0931 42.0005 76.5331 42.1636 76.9358C42.486 77.7412 43.142 78.4086 43.9463 78.733C44.7468 79.0611 45.6808 79.0462 46.4665 78.6808C46.8631 78.5018 47.2152 78.2408 47.5154 77.9313C47.6636 77.771 47.7971 77.6032 47.9342 77.4466C48.0787 77.2937 48.227 77.1409 48.3827 76.9992C49.628 75.8582 51.3217 75.2244 53.0081 75.2989C54.6944 75.34 56.3474 76.0782 57.5149 77.3012C58.6972 78.513 59.3754 80.1946 59.3754 81.8948C59.3791 83.595 58.7009 85.2803 57.5186 86.4921C56.3511 87.7188 54.6981 88.4571 53.0081 88.5018C51.3217 88.5801 49.6206 87.9463 48.3715 86.8016C48.0491 86.522 47.7897 86.1976 47.5006 85.8732C47.2041 85.56 46.852 85.3027 46.4591 85.1275C45.6771 84.7621 44.7505 84.7546 43.9574 85.079C43.1568 85.3997 42.5045 86.0634 42.1895 86.865C42.0264 87.264 41.956 87.7002 41.956 88.129V89.4079L41.9597 94.5309L41.9634 101H42.0153L42.019 94.5309L42.0227 89.4079C42.0524 88.5615 41.9152 87.6815 42.2525 86.8911C42.5601 86.1044 43.2013 85.4556 43.9833 85.1461C44.7616 84.8255 45.666 84.8366 46.4295 85.1909C46.8149 85.3661 47.1596 85.6196 47.4487 85.9217C47.7267 86.2386 48.0009 86.5779 48.3234 86.8575C49.5835 88.0134 51.3032 88.6584 53.0118 88.5839C54.7204 88.5429 56.3956 87.7934 57.5816 86.5555C58.7787 85.3251 59.4681 83.6174 59.4644 81.8948C59.4718 80.1722 58.7824 78.4608 57.5853 77.2304C56.3993 75.9887 54.7241 75.2393 53.0118 75.1945C51.2995 75.1162 49.5761 75.7576 48.3085 76.9171C48.1492 77.0626 48.0009 77.2154 47.8527 77.372C47.7118 77.5324 47.5784 77.7002 47.4339 77.853C47.1448 78.155 46.8001 78.4049 46.4221 78.5764C45.6623 78.9306 44.7616 78.9418 43.9907 78.6248C43.2161 78.3116 42.5824 77.6666 42.2747 76.891C41.9375 76.108 42.082 75.2281 42.0487 74.3817L42.0524 69.2586L42.0598 59.0834H41.9894L42.0598 59.0125V59.0834L52.1742 59.0871L57.2666 59.0908H58.5378C58.9677 59.0945 59.4088 59.02 59.8091 58.8559C60.6207 58.5315 61.2879 57.8641 61.6103 57.0513C61.9402 56.2385 61.9327 55.2914 61.5658 54.4935C61.3879 54.0945 61.1248 53.7366 60.8135 53.4308C60.6541 53.278 60.491 53.1475 60.3353 53.0058C60.1797 52.8641 60.0314 52.715 59.8906 52.5584C58.7602 51.313 58.1375 49.6128 58.2117 47.9275C58.2561 46.2421 58.9863 44.5904 60.1945 43.4196C61.3953 42.2414 63.0557 41.5665 64.7347 41.5702C66.4099 41.5665 68.074 42.2414 69.2748 43.4233C70.4831 44.5904 71.2132 46.2421 71.2577 47.9275C71.3318 49.6128 70.7055 51.313 69.5751 52.5584C69.4379 52.715 69.286 52.8641 69.134 53.0058C68.9783 53.1475 68.8153 53.278 68.6559 53.4308C68.3446 53.7366 68.0814 54.0945 67.9035 54.4972C67.5366 55.2914 67.5255 56.2422 67.8591 57.0513C68.1852 57.8641 68.8486 58.5315 69.6566 58.8559C70.0606 59.02 70.5016 59.0983 70.9315 59.0908H72.2028L89.2952 59.0871H89.4842C89.4953 59.0386 89.5064 58.9864 89.5176 58.938H89.2952Z" fill="white"/>
<path d="M89.2952 58.938L89.2951 59.438H89.2952V58.938ZM72.2028 58.9342L72.1829 59.4338L72.1928 59.4342L72.2027 59.4342L72.2028 58.9342ZM69.7196 58.7068L69.92 58.2487L69.913 58.2456L69.9059 58.2428L69.7196 58.7068ZM68.0073 56.9879L68.4713 56.8016L68.4707 56.8001L68.0073 56.9879ZM68.0555 54.5643L68.5097 54.7734L68.5117 54.7689L68.0555 54.5643ZM68.7708 53.5539L68.4253 53.1924L68.423 53.1947L68.7708 53.5539ZM69.2489 53.1326L69.5817 53.5057L69.5883 53.4998L69.5948 53.4936L69.2489 53.1326ZM69.7011 52.6739L69.3307 52.338L69.3297 52.3391L69.7011 52.6739ZM71.4319 47.9237L70.932 47.9366L70.9323 47.9451L71.4319 47.9237ZM69.3971 43.2928L69.0463 43.6491L69.0496 43.6523L69.3971 43.2928ZM64.7347 41.3838L64.7336 41.8838L64.7358 41.8838L64.7347 41.3838ZM60.0685 43.2928L60.4166 43.6518L60.4193 43.6491L60.0685 43.2928ZM58.0412 47.9237L58.5408 47.9462L58.541 47.9355L58.0412 47.9237ZM59.7683 52.6739L60.144 52.3439L60.1386 52.338L59.7683 52.6739ZM60.2205 53.1326L59.8745 53.4936L59.8833 53.502L59.8925 53.51L60.2205 53.1326ZM60.6986 53.5502L61.0465 53.191L61.044 53.1887L60.6986 53.5502ZM61.4139 54.5643L60.9576 54.7689L60.9605 54.7752L61.4139 54.5643ZM61.4621 56.9879L60.9987 56.8001L60.9973 56.8035L61.4621 56.9879ZM59.7498 58.7068L59.5635 58.2428L59.5564 58.2456L59.5494 58.2487L59.7498 58.7068ZM57.2666 58.9342L57.2669 59.4342L57.2756 59.4342L57.2842 59.4339L57.2666 58.9342ZM52.1742 58.938L52.1743 59.438H52.1745L52.1742 58.938ZM42.0598 58.9417V59.4417H42.06L42.0598 58.9417ZM41.9189 58.9417V58.4417H41.4189V58.9417H41.9189ZM41.9189 59.0834H41.4189L41.4189 59.0837L41.9189 59.0834ZM41.9264 69.2586L42.4264 69.2583V69.2583L41.9264 69.2586ZM41.9301 74.3817H42.4301L42.4301 74.3814L41.9301 74.3817ZM41.9301 75.6606L42.4301 75.6692V75.6606H41.9301ZM42.1636 76.9358L42.6277 76.7499L42.627 76.7481L42.1636 76.9358ZM43.9463 78.733L44.1359 78.2703L44.1333 78.2693L43.9463 78.733ZM46.4665 78.6808L46.2608 78.225L46.2557 78.2274L46.4665 78.6808ZM47.5154 77.9313L47.8744 78.2796L47.8825 78.2708L47.5154 77.9313ZM47.9342 77.4466L47.5709 77.1031L47.5643 77.11L47.558 77.1172L47.9342 77.4466ZM48.3827 76.9992L48.7192 77.3689L48.7204 77.3678L48.3827 76.9992ZM53.0081 75.2989L52.986 75.7986L52.9959 75.7988L53.0081 75.2989ZM57.5149 77.3012L57.1532 77.6465L57.157 77.6504L57.5149 77.3012ZM59.3754 81.8948H58.8754L58.8754 81.8959L59.3754 81.8948ZM57.5186 86.4921L57.1607 86.1429L57.1564 86.1474L57.5186 86.4921ZM53.0081 88.5018L52.9948 88.0019L52.9849 88.0024L53.0081 88.5018ZM48.3715 86.8016L48.7095 86.4329L48.6991 86.4239L48.3715 86.8016ZM47.5006 85.8732L47.8738 85.5405L47.8688 85.5349L47.8637 85.5294L47.5006 85.8732ZM46.4591 85.1275L46.2474 85.5805L46.2554 85.5841L46.4591 85.1275ZM43.9574 85.079L44.1433 85.5432L44.1467 85.5418L43.9574 85.079ZM42.1895 86.865L42.6524 87.0542L42.6549 87.0479L42.1895 86.865ZM41.956 89.4079H41.456L41.456 89.4082L41.956 89.4079ZM41.9597 94.5309L42.4597 94.5307L42.4597 94.5306L41.9597 94.5309ZM41.9634 101L41.4634 101L41.4637 101.5H41.9634V101ZM42.0153 101V101.5H42.515L42.5153 101L42.0153 101ZM42.019 94.5309L41.519 94.5306L41.519 94.5307L42.019 94.5309ZM42.0227 89.4079L41.523 89.3904L41.5227 89.3989L41.5227 89.4075L42.0227 89.4079ZM42.2525 86.8911L42.7124 87.0873L42.7154 87.0803L42.7182 87.0732L42.2525 86.8911ZM43.9833 85.1461L44.1673 85.6111L44.1738 85.6084L43.9833 85.1461ZM46.4295 85.1909L46.219 85.6444L46.2225 85.646L46.4295 85.1909ZM47.4487 85.9217L47.8246 85.592L47.8174 85.5838L47.8099 85.5759L47.4487 85.9217ZM48.3234 86.8575L48.6615 86.4889L48.651 86.4798L48.3234 86.8575ZM53.0118 88.5839L52.9998 88.0839L52.99 88.0843L53.0118 88.5839ZM57.5816 86.5555L57.2232 86.2068L57.2206 86.2096L57.5816 86.5555ZM59.4644 81.8948L58.9644 81.8926L58.9644 81.8959L59.4644 81.8948ZM57.5853 77.2304L57.2237 77.5757L57.2269 77.579L57.5853 77.2304ZM53.0118 75.1945L52.9889 75.6941L52.9987 75.6944L53.0118 75.1945ZM48.3085 76.9171L48.6455 77.2865L48.646 77.2861L48.3085 76.9171ZM47.8527 77.372L47.4896 77.0283L47.4832 77.0351L47.477 77.042L47.8527 77.372ZM47.4339 77.853L47.7951 78.1988L47.7972 78.1965L47.4339 77.853ZM46.4221 78.5764L46.2155 78.121L46.2108 78.1232L46.4221 78.5764ZM43.9907 78.6248L44.1809 78.1624L44.1782 78.1613L43.9907 78.6248ZM42.2747 76.891L42.7395 76.7067L42.7368 76.6999L42.734 76.6932L42.2747 76.891ZM42.0487 74.3817L41.5487 74.3814L41.5487 74.3914L41.5491 74.4014L42.0487 74.3817ZM42.0524 69.2586L41.5524 69.2583V69.2583L42.0524 69.2586ZM41.9894 59.0834L41.6347 58.7309L40.7874 59.5834H41.9894V59.0834ZM42.0598 59.0125H42.5598V57.8003L41.7052 58.66L42.0598 59.0125ZM52.1742 59.0871L52.1745 58.5871H52.1743L52.1742 59.0871ZM57.2666 59.0908L57.2662 59.5908H57.2666V59.0908ZM58.5378 59.0908L58.5421 58.5908H58.5378V59.0908ZM59.8091 58.8559L59.6235 58.3916L59.6194 58.3933L59.8091 58.8559ZM61.6103 57.0513L61.147 56.8633L61.1455 56.8669L61.6103 57.0513ZM61.5658 54.4935L61.1091 54.6971L61.1116 54.7024L61.5658 54.4935ZM60.8135 53.4308L61.1638 53.0741L61.1596 53.07L60.8135 53.4308ZM59.8906 52.5584L60.2624 52.224L60.2608 52.2223L59.8906 52.5584ZM58.2117 47.9275L58.7113 47.9494L58.7115 47.9406L58.2117 47.9275ZM60.1945 43.4196L60.5425 43.7787L60.5447 43.7765L60.1945 43.4196ZM64.7347 41.5702L64.7336 42.0702L64.7358 42.0702L64.7347 41.5702ZM69.2748 43.4233L68.9241 43.7797L68.9275 43.783L69.2748 43.4233ZM71.2577 47.9275L70.7578 47.9407L70.7582 47.9494L71.2577 47.9275ZM69.5751 52.5584L69.2048 52.2222L69.1989 52.229L69.5751 52.5584ZM69.134 53.0058L69.4706 53.3756L69.475 53.3715L69.134 53.0058ZM68.6559 53.4308L68.3097 53.07L68.3056 53.0741L68.6559 53.4308ZM67.9035 54.4972L68.3575 54.7069L68.3609 54.6993L67.9035 54.4972ZM67.8591 57.0513L68.3231 56.8651L68.3213 56.8607L67.8591 57.0513ZM69.6566 58.8559L69.8447 58.3927L69.8429 58.3919L69.6566 58.8559ZM70.9315 59.0908V58.5907L70.9229 58.5909L70.9315 59.0908ZM72.2028 59.0908V59.5908H72.2029L72.2028 59.0908ZM89.2952 59.0871V58.5871H89.2951L89.2952 59.0871ZM89.4842 59.0871V59.5871H89.8825L89.9715 59.1989L89.4842 59.0871ZM89.5176 58.938L90.0049 59.0497L90.1452 58.438H89.5176V58.938ZM89.2953 58.438L72.2029 58.4342L72.2027 59.4342L89.2951 59.438L89.2953 58.438ZM72.2226 58.4346C71.9959 58.4256 71.7702 58.4285 71.5584 58.4318C71.3422 58.4352 71.1418 58.439 70.9448 58.4339C70.5513 58.4239 70.2169 58.3785 69.92 58.2487L69.5192 59.1649C69.9895 59.3706 70.4742 59.4222 70.9192 59.4336C71.1414 59.4393 71.3652 59.4349 71.574 59.4317C71.7871 59.4283 71.9872 59.4261 72.1829 59.4338L72.2226 58.4346ZM69.9059 58.2428C69.263 57.9847 68.7324 57.4521 68.4713 56.8016L67.5433 57.1742C67.9048 58.0748 68.6344 58.8099 69.5333 59.1708L69.9059 58.2428ZM68.4707 56.8001C68.2097 56.1563 68.2206 55.4015 68.5097 54.7734L67.6013 54.3553C67.1936 55.241 67.1822 56.2833 67.5439 57.1757L68.4707 56.8001ZM68.5117 54.7689C68.6543 54.4509 68.8641 54.1595 69.1186 53.9131L68.423 53.1947C68.0844 53.5225 67.7977 53.9171 67.5992 54.3598L68.5117 54.7689ZM69.1163 53.9153C69.2603 53.7777 69.3888 53.6777 69.5817 53.5057L68.9161 52.7594C68.7829 52.8782 68.5778 53.0467 68.4253 53.1924L69.1163 53.9153ZM69.5948 53.4936C69.7524 53.3426 69.9152 53.1831 70.0724 53.0087L69.3297 52.3391C69.1979 52.4854 69.0567 52.6243 68.903 52.7715L69.5948 53.4936ZM70.0714 53.0099C71.318 51.6356 72.0113 49.7666 71.9314 47.9023L70.9323 47.9451C71.0007 49.5409 70.4043 51.1545 69.3307 52.338L70.0714 53.0099ZM71.9317 47.9109C71.8839 46.0457 71.0803 44.2249 69.7447 42.9334L69.0496 43.6523C70.1972 44.762 70.8909 46.3342 70.9321 47.9366L71.9317 47.9109ZM69.748 42.9366C68.4242 41.6329 66.5894 40.8798 64.7336 40.8838L64.7358 41.8838C66.3268 41.8804 67.9091 42.5292 69.0463 43.6491L69.748 42.9366ZM64.7358 40.8838C62.8803 40.8798 61.0416 41.6327 59.7177 42.9366L60.4193 43.6491C61.5563 42.5294 63.1423 41.8804 64.7336 41.8838L64.7358 40.8838ZM59.7204 42.9339C58.389 44.2252 57.5852 46.0461 57.5413 47.912L58.541 47.9355C58.5787 46.3338 59.2722 44.7617 60.4166 43.6518L59.7204 42.9339ZM57.5417 47.9013C57.4578 49.7663 58.1514 51.6356 59.3979 53.0099L60.1386 52.338C59.0651 51.1545 58.4689 49.5412 58.5407 47.9462L57.5417 47.9013ZM59.3926 53.0039C59.5501 53.1832 59.7216 53.3471 59.8745 53.4936L60.5664 52.7715C60.408 52.6198 60.2682 52.4854 60.1439 52.344L59.3926 53.0039ZM59.8925 53.51C60.0757 53.6692 60.2157 53.7803 60.3531 53.9116L61.044 53.1887C60.8849 53.0366 60.6913 52.8793 60.5484 52.7551L59.8925 53.51ZM60.3507 53.9093C60.6074 54.1579 60.8143 54.4491 60.9576 54.7689L61.8701 54.3598C61.6725 53.9189 61.3902 53.524 61.0465 53.191L60.3507 53.9093ZM60.9605 54.7752C61.2516 55.4009 61.2602 56.1548 60.9987 56.8001L61.9254 57.1757C62.2865 56.2848 62.2804 55.2416 61.8672 54.3534L60.9605 54.7752ZM60.9973 56.8035C60.7404 57.4512 60.2076 57.9842 59.5635 58.2428L59.936 59.1708C60.8337 58.8104 61.5685 58.0757 61.9268 57.1723L60.9973 56.8035ZM59.5494 58.2487C59.2519 58.3788 58.917 58.4248 58.524 58.4353C58.3273 58.4406 58.1269 58.4369 57.9114 58.4334C57.7 58.4299 57.4749 58.4266 57.2489 58.4345L57.2842 59.4339C57.4807 59.427 57.6813 59.4297 57.8949 59.4332C58.1044 59.4367 58.3281 59.4409 58.5507 59.435C58.9962 59.4231 59.4804 59.3703 59.9501 59.1649L59.5494 58.2487ZM57.2662 58.4342L52.1738 58.438L52.1745 59.438L57.2669 59.4342L57.2662 58.4342ZM52.174 58.438L42.0596 58.4417L42.06 59.4417L52.1743 59.438L52.174 58.438ZM42.0598 58.4417H41.9189V59.4417H42.0598V58.4417ZM41.4189 58.9417V59.0834H42.4189V58.9417H41.4189ZM41.4189 59.0837L41.4264 69.259L42.4264 69.2583L42.4189 59.083L41.4189 59.0837ZM41.4264 69.259L41.4301 74.3821L42.4301 74.3814L42.4264 69.2583L41.4264 69.259ZM41.4301 74.3817V75.6606H42.4301V74.3817H41.4301ZM41.4301 75.6521C41.4216 76.1488 41.5107 76.6558 41.7001 77.1235L42.627 76.7481C42.4902 76.4104 42.4237 76.0374 42.43 75.6692L41.4301 75.6521ZM41.6994 77.1216C42.0714 78.0508 42.8259 78.8202 43.7592 79.1967L44.1333 78.2693C43.4581 77.9969 42.9006 77.4315 42.6277 76.75L41.6994 77.1216ZM43.7566 79.1956C44.6836 79.5755 45.7628 79.5594 46.6774 79.1341L46.2557 78.2274C45.5988 78.5329 44.81 78.5466 44.1359 78.2703L43.7566 79.1956ZM46.6722 79.1365C47.1337 78.9282 47.5364 78.6278 47.8743 78.2795L47.1565 77.5832C46.894 77.8538 46.5925 78.0754 46.2608 78.225L46.6722 79.1365ZM47.8825 78.2708C48.0321 78.109 48.1986 77.9037 48.3104 77.776L47.558 77.1172C47.3956 77.3028 47.2952 77.433 47.1483 77.5919L47.8825 78.2708ZM48.2975 77.7901C48.4402 77.6393 48.5779 77.4975 48.7192 77.3689L48.0461 76.6294C47.8761 76.7842 47.7173 76.9482 47.5709 77.1031L48.2975 77.7901ZM48.7204 77.3678C49.8706 76.314 51.4358 75.7299 52.986 75.7985L53.0302 74.7994C51.2076 74.7188 49.3853 75.4024 48.0449 76.6305L48.7204 77.3678ZM52.9959 75.7988C54.5483 75.8366 56.0761 76.5181 57.1532 77.6464L57.8765 76.9559C56.6187 75.6383 54.8405 74.8434 53.0202 74.7991L52.9959 75.7988ZM57.157 77.6504C58.2471 78.7677 58.8754 80.3235 58.8754 81.8948H59.8754C59.8754 80.0656 59.1472 78.2583 57.8728 76.952L57.157 77.6504ZM58.8754 81.8959C58.8789 83.4667 58.2507 85.0258 57.1607 86.143L57.8765 86.8413C59.1511 85.5349 59.8794 83.7234 59.8754 81.8937L58.8754 81.8959ZM57.1564 86.1474C56.0796 87.2789 54.5518 87.9608 52.9948 88.002L53.0213 89.0017C54.8444 88.9534 56.6226 88.1588 57.8808 86.8368L57.1564 86.1474ZM52.9849 88.0024C51.4352 88.0743 49.863 87.4903 48.7094 86.433L48.0337 87.1702C49.3781 88.4023 51.2083 89.0859 53.0313 89.0013L52.9849 88.0024ZM48.6991 86.4239C48.4089 86.1722 48.1861 85.8909 47.8738 85.5405L47.1273 86.2058C47.3932 86.5042 47.6893 86.8717 48.0439 87.1793L48.6991 86.4239ZM47.8637 85.5294C47.5256 85.1724 47.1204 84.875 46.6628 84.6708L46.2554 85.5841C46.5836 85.7305 46.8825 85.9476 47.1375 86.2169L47.8637 85.5294ZM46.6708 84.6745C45.757 84.2475 44.6849 84.2413 43.7681 84.6162L44.1467 85.5418C44.8162 85.268 45.5972 85.2766 46.2475 85.5805L46.6708 84.6745ZM43.7715 84.6149C42.8411 84.9875 42.0888 85.7541 41.7241 86.6821L42.6549 87.0479C42.9202 86.3726 43.4726 85.8118 44.1433 85.5432L43.7715 84.6149ZM41.7267 86.6758C41.5348 87.1451 41.456 87.6475 41.456 88.129H42.456C42.456 87.7529 42.518 87.3828 42.6523 87.0542L41.7267 86.6758ZM41.456 88.129V89.4079H42.456V88.129H41.456ZM41.456 89.4082L41.4597 94.5313L42.4597 94.5306L42.456 89.4075L41.456 89.4082ZM41.4597 94.5312L41.4634 101L42.4634 101L42.4597 94.5307L41.4597 94.5312ZM41.9634 101.5H42.0153V100.5H41.9634V101.5ZM42.5153 101L42.519 94.5312L41.519 94.5307L41.5153 101L42.5153 101ZM42.519 94.5313L42.5227 89.4082L41.5227 89.4075L41.519 94.5306L42.519 94.5313ZM42.5224 89.4254C42.5303 89.1992 42.527 88.9733 42.5236 88.7607C42.5202 88.544 42.5166 88.3415 42.5221 88.1421C42.5329 87.7441 42.5795 87.3988 42.7124 87.0873L41.7926 86.6949C41.5882 87.1739 41.5348 87.6637 41.5224 88.1149C41.5163 88.3401 41.5204 88.5657 41.5238 88.7767C41.5272 88.9919 41.5299 89.1934 41.523 89.3904L42.5224 89.4254ZM42.7182 87.0732C42.9759 86.414 43.5161 85.8688 44.1673 85.611L43.7993 84.6812C42.8865 85.0424 42.1443 85.7947 41.7868 86.709L42.7182 87.0732ZM44.1738 85.6084C44.8266 85.3395 45.5855 85.3505 46.219 85.6444L46.6399 84.7373C45.7465 84.3228 44.6967 84.3114 43.7929 84.6838L44.1738 85.6084ZM46.2225 85.646C46.5451 85.7927 46.8385 86.0073 47.0875 86.2674L47.8099 85.5759C47.4807 85.232 47.0847 84.9395 46.6364 84.7357L46.2225 85.646ZM47.0728 86.2514C47.3319 86.5468 47.6396 86.9264 47.9958 87.2353L48.651 86.4798C48.3622 86.2294 48.1214 85.9304 47.8246 85.592L47.0728 86.2514ZM47.9854 87.226C49.3406 88.469 51.1888 89.1639 53.0336 89.0834L52.99 88.0843C51.4176 88.153 49.8264 87.5577 48.6613 86.4891L47.9854 87.226ZM53.0238 89.0837C54.8667 89.0395 56.6668 88.2331 57.9426 86.9014L57.2206 86.2096C56.1244 87.3537 54.574 88.0462 52.9998 88.084L53.0238 89.0837ZM57.94 86.9042C59.2286 85.5797 59.9684 83.7463 59.9644 81.8937L58.9644 81.8959C58.9678 83.4885 58.3288 85.0705 57.2232 86.2068L57.94 86.9042ZM59.9644 81.8969C59.9723 80.0439 59.2325 78.2064 57.9437 76.8817L57.2269 77.579C58.3323 78.7152 58.9712 80.3005 58.9644 81.8926L59.9644 81.8969ZM57.9469 76.885C56.6707 75.549 54.8706 74.7429 53.0248 74.6947L52.9987 75.6944C54.5775 75.7356 56.1279 76.4285 57.2237 77.5757L57.9469 76.885ZM53.0346 74.6951C51.1862 74.6105 49.334 75.3014 47.971 76.5482L48.646 77.2861C49.8182 76.2138 51.4128 75.6219 52.9889 75.694L53.0346 74.6951ZM47.9715 76.5478C47.7981 76.706 47.6397 76.8697 47.4896 77.0283L48.2158 77.7158C48.3622 77.5611 48.5002 77.4191 48.6455 77.2865L47.9715 76.5478ZM47.477 77.042C47.3115 77.2305 47.2097 77.3623 47.0705 77.5095L47.7972 78.1965C47.9471 78.038 48.1122 77.8342 48.2283 77.702L47.477 77.042ZM47.0727 77.5073C46.8249 77.7661 46.532 77.9774 46.2155 78.121L46.6286 79.0317C47.0682 78.8323 47.4646 78.544 47.7951 78.1988L47.0727 77.5073ZM46.2108 78.1232C45.581 78.4168 44.8261 78.4276 44.1809 78.1624L43.8006 79.0873C44.6972 79.4559 45.7435 79.4444 46.6333 79.0295L46.2108 78.1232ZM44.1782 78.1613C43.5322 77.9001 42.9975 77.3571 42.7395 76.7067L41.81 77.0754C42.1672 77.9761 42.9001 78.7232 43.8033 79.0884L44.1782 78.1613ZM42.734 76.6932C42.6023 76.3876 42.5572 76.046 42.5476 75.6481C42.5428 75.4488 42.5469 75.2466 42.5506 75.0292C42.5541 74.816 42.5572 74.5894 42.5483 74.362L41.5491 74.4014C41.5568 74.5973 41.5543 74.798 41.5507 75.0124C41.5472 75.2224 41.5425 75.4478 41.5479 75.6722C41.5587 76.1217 41.6099 76.6115 41.8155 77.0888L42.734 76.6932ZM42.5487 74.3821L42.5524 69.259L41.5524 69.2583L41.5487 74.3814L42.5487 74.3821ZM42.5524 69.259L42.5598 59.0837L41.5598 59.083L41.5524 69.2583L42.5524 69.259ZM42.0598 58.5834H41.9894V59.5834H42.0598V58.5834ZM42.344 59.4359L42.4144 59.365L41.7052 58.66L41.6347 58.7309L42.344 59.4359ZM41.5598 59.0125V59.0834H42.5598V59.0125H41.5598ZM42.0596 59.5834L52.174 59.5871L52.1743 58.5871L42.06 58.5834L42.0596 59.5834ZM52.1738 59.5871L57.2662 59.5908L57.2669 58.5908L52.1745 58.5871L52.1738 59.5871ZM57.2666 59.5908H58.5378V58.5908H57.2666V59.5908ZM58.5335 59.5908C59.022 59.595 59.5299 59.5107 59.9987 59.3186L59.6194 58.3933C59.2876 58.5293 58.9135 58.5941 58.5421 58.5908L58.5335 59.5908ZM59.9946 59.3202C60.9335 58.945 61.7018 58.1765 62.0751 57.2357L61.1455 56.8669C60.8739 57.5517 60.308 58.1181 59.6235 58.3916L59.9946 59.3202ZM62.0736 57.2393C62.4532 56.304 62.4471 55.2131 62.0201 54.2846L61.1116 54.7024C61.4184 55.3697 61.4271 56.1729 61.147 56.8633L62.0736 57.2393ZM62.0225 54.2899C61.8154 53.8255 61.513 53.417 61.1638 53.0741L60.4631 53.7876C60.7366 54.0561 60.9604 54.3636 61.1092 54.6971L62.0225 54.2899ZM61.1596 53.07C61.0049 52.9217 60.7857 52.7396 60.6719 52.636L59.9988 53.3755C60.1963 53.5553 60.3033 53.6343 60.4673 53.7917L61.1596 53.07ZM60.6719 52.636C60.5286 52.5056 60.3921 52.3682 60.2624 52.224L59.5188 52.8927C59.6708 53.0617 59.8308 53.2226 59.9988 53.3755L60.6719 52.636ZM60.2608 52.2223C59.218 51.0734 58.6429 49.5015 58.7112 47.9494L57.7121 47.9055C57.6322 49.7241 58.3024 51.5526 59.5204 52.8944L60.2608 52.2223ZM58.7115 47.9406C58.7525 46.3869 59.4275 44.859 60.5425 43.7787L59.8466 43.0605C58.545 44.3217 57.7598 46.0974 57.7118 47.9143L58.7115 47.9406ZM60.5447 43.7765C61.6516 42.6904 63.1858 42.0668 64.7336 42.0702L64.7358 41.0702C62.9257 41.0662 61.139 41.7924 59.8443 43.0627L60.5447 43.7765ZM64.7358 42.0702C66.2799 42.0668 67.8174 42.6904 68.9241 43.7797L69.6256 43.067C68.3306 41.7923 66.5399 41.0662 64.7336 41.0702L64.7358 42.0702ZM68.9275 43.783C70.0417 44.8592 70.7169 46.3867 70.7579 47.9406L71.7575 47.9143C71.7096 46.0976 70.9244 44.3215 69.6222 43.0637L68.9275 43.783ZM70.7582 47.9494C70.8264 49.5008 70.2482 51.0729 69.2048 52.2223L69.9453 52.8944C71.1628 51.5531 71.8372 49.7248 71.7572 47.9055L70.7582 47.9494ZM69.1989 52.229C69.0777 52.3673 68.9396 52.5034 68.793 52.6401L69.475 53.3715C69.6323 53.2248 69.7981 53.0626 69.9512 52.8878L69.1989 52.229ZM68.7974 52.636C68.6836 52.7396 68.4644 52.9217 68.3098 53.07L69.002 53.7917C69.1661 53.6343 69.2731 53.5553 69.4706 53.3755L68.7974 52.636ZM68.3056 53.0741C67.9562 53.4172 67.6534 53.8261 67.4462 54.2952L68.3609 54.6993C68.5095 54.3629 68.7329 54.056 69.0062 53.7876L68.3056 53.0741ZM67.4496 54.2875C67.0228 55.2114 67.0115 56.3074 67.3968 57.2419L68.3213 56.8607C68.0394 56.177 68.0504 55.3714 68.3574 54.7069L67.4496 54.2875ZM67.395 57.2375C67.7714 58.1755 68.5343 58.9441 69.4703 59.3199L69.8429 58.3919C69.163 58.1189 68.599 57.5528 68.3231 56.8651L67.395 57.2375ZM69.4685 59.3192C69.9372 59.5095 70.4454 59.5993 70.9402 59.5907L70.9229 58.5909C70.5578 58.5972 70.1839 58.5304 69.8447 58.3927L69.4685 59.3192ZM70.9315 59.5908H72.2028V58.5908H70.9315V59.5908ZM72.2029 59.5908L89.2953 59.5871L89.2951 58.5871L72.2027 58.5908L72.2029 59.5908ZM89.2952 59.5871H89.4842V58.5871H89.2952V59.5871ZM89.9715 59.1989C89.9776 59.1723 89.9836 59.1452 89.9891 59.1204C89.9948 59.0948 89.9999 59.0717 90.0049 59.0497L89.0302 58.8262C89.0241 58.8527 89.0181 58.8799 89.0127 58.9047C89.007 58.9302 89.0019 58.9534 88.9969 58.9753L89.9715 59.1989ZM89.5176 58.438H89.2952V59.438H89.5176V58.438Z" fill="white" mask="url(#path-5-outside-1_8877_14662)"/>
<path d="M99.8764 24.6289L99.8746 24.6335C99.7223 25.0231 99.6554 25.438 99.6799 25.8389C99.7046 26.2425 99.8162 26.6373 100.022 26.9974L99.8764 24.6289ZM99.8764 24.6289C100.607 22.7039 100.502 20.4677 99.3969 18.5312L99.8764 24.6289ZM87.0117 25.5596L87.0116 25.5594C85.0504 22.1208 86.2313 17.7588 89.6547 15.8198C93.0763 13.8818 97.438 15.0955 99.3968 18.531L87.0117 25.5596ZM87.0117 25.5596C88.1164 27.4951 89.986 28.7327 92.0228 29.0865L92.0247 29.0868M87.0117 25.5596L92.0247 29.0868M92.0247 29.0868C92.8606 29.2288 93.5861 29.7061 93.993 30.4209L93.9934 30.4215M92.0247 29.0868L93.9934 30.4215M93.9934 30.4215C94.3631 31.0687 94.4337 31.8007 94.2521 32.4581L94.2516 32.4599M93.9934 30.4215L94.2516 32.4599M94.2516 32.4599C94.0714 33.1221 93.6408 33.713 93.0018 34.0753L93.0017 34.0753M94.2516 32.4599L93.0017 34.0753M93.0017 34.0753L78.9847 42.0266L70.9545 27.9489L70.9544 27.9488M93.0017 34.0753L70.9544 27.9488M70.9544 27.9488C69.9452 26.1806 67.6968 25.5562 65.9309 26.5579L70.9544 27.9488ZM64.119 29.2227L64.1192 29.2213C64.2118 28.6741 64.4113 28.1429 64.7217 27.6842C65.027 27.233 65.432 26.84 65.9301 26.5584L64.119 29.2227ZM64.119 29.2227C63.828 30.9713 62.7743 32.5778 61.1189 33.5166C58.1752 35.1856 54.4231 34.1483 52.7349 31.1926C51.0499 28.2407 52.0701 24.4928 55.0156 22.8221C56.6711 21.8832 58.5942 21.8011 60.2513 22.4429L60.2514 22.443M64.119 29.2227L60.2514 22.443M60.2514 22.443C61.2966 22.8474 62.4768 22.8154 63.47 22.2493M60.2514 22.443L64.8387 17.2279M64.8387 17.2279L64.8388 17.2279C65.3426 18.1116 65.4399 19.1178 65.1936 20.0237C64.9491 20.9349 64.3504 21.7497 63.47 22.2493M64.8387 17.2279L56.811 3.15449M64.8387 17.2279L56.811 3.15449M63.47 22.2493C63.4697 22.2494 63.4694 22.2496 63.4692 22.2497L63.2225 21.8148M63.47 22.2493C63.47 22.2492 63.4701 22.2492 63.4701 22.2492L63.2225 21.8148M63.2225 21.8148C63.9834 21.3834 64.5 20.6801 64.7109 19.8933L63.2225 21.8148ZM56.811 3.15449C63.1133 -0.325439 69.3699 -1.60835 75.2456 -1.34649C79.6647 -1.1456 83.8792 -0.075992 87.7367 1.59809C97.0839 5.65736 104.326 13.2633 107.431 20.5227C108.078 22.049 108.63 23.5213 109.093 24.9443L103.681 28.0163C102.399 28.744 100.76 28.2914 100.022 26.9975L56.811 3.15449Z" stroke="white"/>
</g>
</g>
<path fill-rule="evenodd" clip-rule="evenodd" d="M21.2722 52.2543C18.5702 52.2543 15.4152 51.2161 12.0135 48.5477C11.2309 47.9378 11.0941 46.8099 11.7041 46.0295C12.314 45.2492 13.4419 45.1101 14.2222 45.7268C17.1754 48.0275 19.4985 48.6688 21.2924 48.6733C21.34 48.6723 21.5282 48.673 21.7375 48.6737C21.8558 48.6741 21.9807 48.6746 22.0908 48.6747C22.086 48.6579 22.0815 48.6409 22.0772 48.6239C21.9001 47.9243 22.1535 47.1574 22.7791 46.7157C24.7098 45.3456 26.6203 44.4621 28.4478 43.9531C28.6115 44.3993 28.8268 44.8164 29.0869 45.1998C29.1183 45.2469 29.1497 45.2918 29.1833 45.3389C29.4546 45.7133 29.7708 46.0542 30.1228 46.3502C30.1432 46.3654 30.162 46.3821 30.1807 46.3986C30.195 46.4112 30.2092 46.4237 30.2238 46.4354C30.522 46.6753 30.8449 46.8816 31.1857 47.0565C31.975 47.4624 32.863 47.6911 33.8026 47.6911C34.2376 47.6911 34.6748 47.6418 35.1031 47.5409C35.2534 47.5072 35.4014 47.4646 35.5471 47.4175C35.5553 47.4149 35.5636 47.4124 35.572 47.4098C35.6069 47.3988 35.6428 47.3876 35.6772 47.3749C36.2535 47.1754 36.7849 46.8906 37.2625 46.5273C37.8097 46.1125 38.2851 45.5945 38.6595 44.9935C38.6999 44.9263 38.738 44.8612 38.7761 44.794C38.7761 44.794 38.7784 44.7912 38.7795 44.7895C38.7806 44.7878 38.7829 44.785 38.7829 44.785C39.2953 44.4693 40.21 44.3357 41.1112 44.204C41.7401 44.1122 42.3624 44.0213 42.8371 43.8701C42.8863 43.9216 42.9379 43.9732 42.9894 44.0247C43.7316 44.7579 44.6646 45.2783 45.7073 45.5205C46.1356 45.6192 46.5728 45.6707 47.0079 45.6707C48.5596 45.6707 49.9812 45.0518 51.0194 44.0248C51.071 43.9755 51.1226 43.9239 51.1719 43.8701C51.6086 44.0095 52.1886 44.1272 52.7879 44.2489C53.7703 44.4484 54.8046 44.6584 55.345 44.9913C55.7194 45.5923 56.1948 46.108 56.742 46.5251C57.2196 46.8883 57.751 47.1754 58.3273 47.3727C58.3617 47.3854 58.3976 47.3966 58.4326 47.4075C58.4409 47.4101 58.4492 47.4127 58.4574 47.4153C58.6031 47.4601 58.7511 47.5027 58.9014 47.5386C59.3296 47.6373 59.7669 47.6889 60.2019 47.6889C61.1415 47.6889 62.0317 47.4601 62.8188 47.0543C63.1596 46.8794 63.4825 46.6731 63.7807 46.4331C63.8079 46.4127 63.8326 46.391 63.8576 46.369C63.8655 46.362 63.8735 46.355 63.8816 46.3479C64.2337 46.0497 64.5499 45.7111 64.8212 45.3344C64.8283 45.3242 64.8356 45.3139 64.8429 45.3035C64.8678 45.2681 64.8934 45.2317 64.9176 45.1954C65.1755 44.8142 65.3908 44.3948 65.5545 43.9486C67.382 44.4576 69.2925 45.3434 71.2231 46.7112C71.8488 47.1529 72.1044 47.9198 71.925 48.6194C71.9208 48.6362 71.9164 48.6529 71.9117 48.6695C72.1074 48.6697 72.367 48.6683 72.5386 48.6673C72.6205 48.6669 72.6823 48.6665 72.7076 48.6665C74.5015 48.6621 76.8223 48.023 79.7778 45.7223C80.5581 45.1124 81.686 45.2514 82.2959 46.0318C82.9059 46.8121 82.7668 47.94 81.9865 48.5499C78.5848 51.2183 75.4298 52.2566 72.7278 52.2566H72.7076C71.0617 52.2588 69.6311 51.8798 68.4404 51.3574L70.0818 62.4997L72.3592 71.4355C72.5203 72.0677 72.0426 72.6824 71.3902 72.6824H67.4788C67.0216 72.6824 66.6227 72.3724 66.5097 71.9294L64.792 65.1905L63.3883 65.3968V71.6824C63.3883 72.2347 62.9406 72.6824 62.3883 72.6824H58.5985C58.0463 72.6824 57.5985 72.2347 57.5985 71.6824V64.5985C57.5851 64.5425 57.5739 64.4842 57.5649 64.4259L55.6208 51.2228C55.4616 51.1152 55.3181 50.9807 55.197 50.8192C55.161 50.7705 54.5425 50.0832 54.0583 49.6047C54.0536 49.6082 54.049 49.6116 54.0444 49.6151C53.7484 49.8348 53.5107 50.0299 53.338 50.1801C53.3358 50.1801 53.3336 50.1824 53.3336 50.1824V60.1811V64.6165V71.6824C53.3336 72.2347 52.8858 72.6824 52.3336 72.6824H48.5438C47.9915 72.6824 47.5438 72.2347 47.5438 71.6825V66.4261H46.4585V71.6824C46.4585 72.2347 46.0108 72.6824 45.4585 72.6824H41.6687C41.1164 72.6824 40.6687 72.2347 40.6687 71.6824V64.6165V60.1811V50.1801L40.6668 50.1777L40.6642 50.1756C40.4915 50.0277 40.2538 49.8303 39.9579 49.6106C39.945 49.6011 39.9321 49.5915 39.919 49.5819C39.4257 50.0596 38.8434 50.7631 38.8053 50.8147C38.6842 50.9762 38.5384 51.1107 38.3815 51.2183L36.4373 64.4214C36.4284 64.4797 36.4172 64.538 36.4037 64.594V71.6824C36.4037 72.2347 35.956 72.6824 35.4037 72.6824H31.6139C31.0616 72.6824 30.6139 72.2347 30.6139 71.6824V65.3923L29.208 65.186L27.4891 71.9294C27.3762 72.3724 26.9773 72.6824 26.5201 72.6824H22.6087C21.9562 72.6824 21.4785 72.0677 21.6397 71.4355L23.9182 62.4952L25.5596 51.3529C24.3689 51.8776 22.9383 52.2543 21.2924 52.2543H21.2722ZM36.1436 47.6014C36.1788 47.6134 36.2138 47.6255 36.2487 47.6377C36.2117 47.6298 36.1763 47.6185 36.1436 47.6014ZM57.8609 47.6059C57.8517 47.6107 57.8411 47.6141 57.8293 47.6164C57.8398 47.6129 57.8503 47.6094 57.8609 47.6059ZM55.2815 44.8848C55.3925 44.8958 55.4988 44.91 55.345 44.9913C55.3233 44.9563 55.3022 44.9207 55.2815 44.8848ZM55.2815 44.8848C55.2768 44.8843 55.2721 44.8839 55.2674 44.8834C55.1534 44.8723 55.0457 44.8618 55.2216 44.7828C55.2216 44.7828 55.2239 44.7856 55.225 44.7872C55.2261 44.7889 55.2284 44.7917 55.2284 44.7917C55.246 44.8228 55.2636 44.8539 55.2815 44.8848Z" fill="white"/>
<path d="M29.8317 44.245C30.0313 44.4737 30.2488 44.6823 30.482 44.8729C30.9888 45.2832 31.5673 45.5994 32.1884 45.799C32.9351 46.0412 33.7446 46.1152 34.5631 45.9963C34.7066 45.9761 34.8524 45.9492 34.9959 45.9156C35.5834 45.7788 36.1238 45.5478 36.6081 45.2429C37.3414 44.781 37.9401 44.1508 38.3639 43.4176C38.3706 43.4064 38.3774 43.3929 38.3863 43.3817C39.0164 42.2717 39.2451 40.9331 38.9335 39.5921C38.2742 36.76 35.4421 34.9975 32.6077 35.6568C29.7756 36.316 28.0131 39.1481 28.6724 41.9802C28.6926 42.0632 28.7128 42.1439 28.7352 42.2247C28.7755 42.3682 28.8249 42.5094 28.8765 42.6485C29.1029 43.2472 29.4281 43.7831 29.8317 44.245Z" fill="white"/>
<path d="M55.6343 43.4176C56.0581 44.1509 56.6568 44.7832 57.39 45.2429C57.8744 45.5478 58.4148 45.7788 59.0023 45.9156C59.148 45.9492 59.2916 45.9761 59.4351 45.9963C60.2535 46.1174 61.063 46.0412 61.8097 45.799C62.4309 45.5972 63.0094 45.2832 63.5162 44.8729C63.7494 44.6823 63.9691 44.4738 64.1687 44.245C64.5723 43.7831 64.8975 43.2472 65.1217 42.6485C65.1733 42.5094 65.2204 42.3704 65.263 42.2247C65.2854 42.1439 65.3078 42.0632 65.3258 41.9802C65.985 39.1481 64.2248 36.316 61.3904 35.6568C58.5583 34.9975 55.7262 36.76 55.0647 39.5921C54.753 40.9331 54.984 42.2717 55.6118 43.3817C55.6186 43.3929 55.6275 43.4064 55.6343 43.4176Z" fill="white"/>
<path d="M45.8064 43.897C47.5487 44.3029 49.291 43.7916 50.5266 42.6794C50.5781 42.6323 50.6275 42.5853 50.6768 42.5382C51.3742 41.8587 51.8922 40.9797 52.1298 39.9617C52.7891 37.1296 51.0266 34.2975 48.1945 33.6382C45.3601 32.979 42.5303 34.7415 41.8688 37.5736C41.436 39.4347 42.0459 41.2937 43.3196 42.5382C43.3689 42.5875 43.4205 42.6323 43.4721 42.6794C44.1134 43.258 44.9049 43.6885 45.8064 43.897Z" fill="white"/>
<defs>
<filter id="filter0_dd_8877_14662" x="0.5" y="0" width="93" height="108" filterUnits="userSpaceOnUse" color-interpolation-filters="sRGB">
<feFlood flood-opacity="0" result="BackgroundImageFix"/>
<feColorMatrix in="SourceAlpha" type="matrix" values="0 0 0 0 0 0 0 0 0 0 0 0 0 0 0 0 0 0 127 0" result="hardAlpha"/>
<feOffset dy="2"/>
<feGaussianBlur stdDeviation="1"/>
<feColorMatrix type="matrix" values="0 0 0 0 0 0 0 0 0 0 0 0 0 0 0 0 0 0 0.12 0"/>
<feBlend mode="normal" in2="BackgroundImageFix" result="effect1_dropShadow_8877_14662"/>
<feColorMatrix in="SourceAlpha" type="matrix" values="0 0 0 0 0 0 0 0 0 0 0 0 0 0 0 0 0 0 127 0" result="hardAlpha"/>
<feOffset/>
<feGaussianBlur stdDeviation="1"/>
<feColorMatrix type="matrix" values="0 0 0 0 0 0 0 0 0 0 0 0 0 0 0 0 0 0 0.14 0"/>
<feBlend mode="normal" in2="effect1_dropShadow_8877_14662" result="effect2_dropShadow_8877_14662"/>
<feBlend mode="normal" in="SourceGraphic" in2="effect2_dropShadow_8877_14662" result="shape"/>
</filter>
<linearGradient id="paint0_linear_8877_14662" x1="5.5" y1="5" x2="100.493" y2="87.129" gradientUnits="userSpaceOnUse">
<stop stop-color="#FF785E"/>
<stop offset="1" stop-color="#FFC200"/>
</linearGradient>
<clipPath id="clip0_8877_14662">
<rect width="83" height="96" fill="white" transform="translate(5.5 5)"/>
</clipPath>
</defs>
</svg>
