<svg width="98" height="108" viewBox="0 0 98 108" fill="none" xmlns="http://www.w3.org/2000/svg">
<rect width="75.7917" height="94.9466" rx="4" transform="matrix(-0.996782 -0.0801591 -0.0801591 0.996782 97.6201 12.3594)" fill="#33CC99"/>
<g filter="url(#filter0_dd_8877_14593)">
<path fill-rule="evenodd" clip-rule="evenodd" d="M9.5 2H84.5C88.366 2 91.5 5.134 91.5 9V97C91.5 100.866 88.366 104 84.5 104H9.5C5.63401 104 2.5 100.866 2.5 97V9C2.5 5.13401 5.634 2 9.5 2ZM9.5 5C7.29086 5 5.5 6.79086 5.5 9V97C5.5 99.2091 7.29086 101 9.5 101H84.5C86.7091 101 88.5 99.2091 88.5 97V9C88.5 6.79086 86.7091 5 84.5 5H9.5Z" fill="white"/>
</g>
<path d="M5.5 9C5.5 6.79086 7.29086 5 9.5 5H84.5C86.7091 5 88.5 6.79086 88.5 9V97C88.5 99.2091 86.7091 101 84.5 101H9.5C7.29086 101 5.5 99.2091 5.5 97V9Z" fill="url(#paint0_linear_8877_14593)"/>
<mask id="mask0_8877_14593" style="mask-type:alpha" maskUnits="userSpaceOnUse" x="5" y="5" width="84" height="96">
<path d="M5.5 9C5.5 6.79086 7.29086 5 9.5 5H84.5C86.7091 5 88.5 6.79086 88.5 9V97C88.5 99.2091 86.7091 101 84.5 101H9.5C7.29086 101 5.5 99.2091 5.5 97V9Z" fill="url(#paint1_linear_8877_14593)"/>
</mask>
<g mask="url(#mask0_8877_14593)">
<g opacity="0.3">
<path fill-rule="evenodd" clip-rule="evenodd" d="M114.397 36.5769C114.397 73.7994 84.2222 103.974 46.9998 103.974C9.77731 103.974 -20.3975 73.7994 -20.3975 36.5769C-20.3975 -0.645538 9.77731 -30.8203 46.9998 -30.8203C84.2222 -30.8203 114.397 -0.645538 114.397 36.5769ZM114.897 36.5769C114.897 74.0755 84.4984 104.474 46.9998 104.474C9.50117 104.474 -20.8975 74.0755 -20.8975 36.5769C-20.8975 -0.921684 9.50117 -31.3203 46.9998 -31.3203C84.4984 -31.3203 114.897 -0.921684 114.897 36.5769ZM46.9997 97.3176C80.5458 97.3176 107.74 70.1231 107.74 36.577C107.74 3.03082 80.5458 -24.1637 46.9997 -24.1637C13.4535 -24.1637 -13.741 3.03082 -13.741 36.577C-13.741 70.1231 13.4535 97.3176 46.9997 97.3176ZM46.9997 97.8176C80.8219 97.8176 108.24 70.3992 108.24 36.577C108.24 2.75467 80.8219 -24.6637 46.9997 -24.6637C13.1774 -24.6637 -14.241 2.75467 -14.241 36.577C-14.241 70.3992 13.1774 97.8176 46.9997 97.8176ZM101.084 36.5769C101.084 66.4467 76.8696 90.661 46.9998 90.661C17.13 90.661 -7.08423 66.4467 -7.08423 36.5769C-7.08423 6.70712 17.13 -17.5071 46.9998 -17.5071C76.8696 -17.5071 101.084 6.70712 101.084 36.5769ZM101.584 36.5769C101.584 66.7228 77.1458 91.161 46.9998 91.161C16.8539 91.161 -7.58423 66.7228 -7.58423 36.5769C-7.58423 6.43097 16.8539 -18.0071 46.9998 -18.0071C77.1458 -18.0071 101.584 6.43097 101.584 36.5769ZM46.9997 85.3357C73.9285 85.3357 95.7585 63.5057 95.7585 36.577C95.7585 9.64822 73.9285 -12.1818 46.9997 -12.1818C20.071 -12.1818 -1.75903 9.64822 -1.75903 36.577C-1.75903 63.5057 20.071 85.3357 46.9997 85.3357ZM46.9997 85.8357C74.2046 85.8357 96.2585 63.7818 96.2585 36.577C96.2585 9.37209 74.2046 -12.6818 46.9997 -12.6818C19.7949 -12.6818 -2.25903 9.37209 -2.25903 36.577C-2.25903 63.7818 19.7949 85.8357 46.9997 85.8357ZM90.4334 36.5769C90.4334 60.5645 70.9876 80.0104 46.9999 80.0104C23.0122 80.0104 3.56641 60.5645 3.56641 36.5769C3.56641 12.5892 23.0122 -6.85663 46.9999 -6.85663C70.9876 -6.85663 90.4334 12.5892 90.4334 36.5769ZM90.9334 36.5769C90.9334 60.8407 71.2637 80.5104 46.9999 80.5104C22.7361 80.5104 3.06641 60.8407 3.06641 36.5769C3.06641 12.3131 22.7361 -7.35663 46.9999 -7.35663C71.2637 -7.35663 90.9334 12.3131 90.9334 36.5769ZM46.9998 74.6852C68.0464 74.6852 85.1081 57.6235 85.1081 36.5769C85.1081 15.5303 68.0464 -1.53131 46.9998 -1.53131C25.9532 -1.53131 8.8916 15.5303 8.8916 36.5769C8.8916 57.6235 25.9532 74.6852 46.9998 74.6852ZM46.9998 75.1852C68.3226 75.1852 85.6081 57.8997 85.6081 36.5769C85.6081 15.2542 68.3226 -2.03131 46.9998 -2.03131C25.6771 -2.03131 8.3916 15.2542 8.3916 36.5769C8.3916 57.8997 25.6771 75.1852 46.9998 75.1852ZM79.7827 36.5769C79.7827 54.6824 65.1053 69.3599 46.9998 69.3599C28.8942 69.3599 14.2168 54.6824 14.2168 36.5769C14.2168 18.4714 28.8942 3.79395 46.9998 3.79395C65.1053 3.79395 79.7827 18.4714 79.7827 36.5769ZM80.2827 36.5769C80.2827 54.9586 65.3814 69.8599 46.9998 69.8599C28.6181 69.8599 13.7168 54.9586 13.7168 36.5769C13.7168 18.1952 28.6181 3.29395 46.9998 3.29395C65.3814 3.29395 80.2827 18.1952 80.2827 36.5769ZM74.4576 36.577C74.4576 51.7414 62.1644 64.0346 46.9999 64.0346C31.8355 64.0346 19.5422 51.7414 19.5422 36.577C19.5422 21.4125 31.8355 9.11926 46.9999 9.11926C62.1644 9.11926 74.4576 21.4125 74.4576 36.577ZM74.9576 36.577C74.9576 52.0175 62.4405 64.5346 46.9999 64.5346C31.5593 64.5346 19.0422 52.0175 19.0422 36.577C19.0422 21.1363 31.5593 8.61926 46.9999 8.61926C62.4405 8.61926 74.9576 21.1363 74.9576 36.577ZM69.132 36.5769C69.132 48.8003 59.223 58.7093 46.9996 58.7093C34.7762 58.7093 24.8672 48.8003 24.8672 36.5769C24.8672 24.3535 34.7762 14.4445 46.9996 14.4445C59.223 14.4445 69.132 24.3535 69.132 36.5769ZM69.632 36.5769C69.632 49.0765 59.4991 59.2093 46.9996 59.2093C34.5001 59.2093 24.3672 49.0765 24.3672 36.5769C24.3672 24.0774 34.5001 13.9445 46.9996 13.9445C59.4991 13.9445 69.632 24.0774 69.632 36.5769ZM46.9998 53.384C56.2821 53.384 63.8069 45.8592 63.8069 36.5769C63.8069 27.2946 56.2821 19.7698 46.9998 19.7698C37.7174 19.7698 30.1926 27.2946 30.1926 36.5769C30.1926 45.8592 37.7174 53.384 46.9998 53.384ZM46.9998 53.884C56.5582 53.884 64.3069 46.1354 64.3069 36.5769C64.3069 27.0184 56.5582 19.2698 46.9998 19.2698C37.4413 19.2698 29.6926 27.0184 29.6926 36.5769C29.6926 46.1354 37.4413 53.884 46.9998 53.884Z" fill="white"/>
</g>
</g>
<path d="M47.247 43.3201C50.6816 43.4034 53.5022 40.419 53.5392 36.9931C53.5713 33.9078 51.224 30.5223 47.2544 30.5273C43.7754 30.5299 41.0164 33.3301 41.0263 36.9275C41.0411 41.0396 44.3721 43.3983 47.247 43.3201Z" fill="white"/>
<path d="M49.6087 58.3217C48.4301 57.3081 48.2963 55.5309 49.31 54.3522C50.3237 53.1736 52.1009 53.0399 53.2795 54.0535L60.869 60.5808C62.0476 61.5945 62.1814 63.3717 61.1677 64.5503C60.1541 65.729 58.3768 65.8627 57.1982 64.849L49.6087 58.3217Z" fill="white"/>
<path d="M47.4614 51.6545C47.4614 51.293 47.7412 51 48.0864 51H51.8364C52.1816 51 52.4614 51.293 52.4614 51.6545V59.3455C52.4614 59.7069 52.1816 60 51.8364 60H48.0864C47.7412 60 47.4614 59.7069 47.4614 59.3455V51.6545Z" fill="white"/>
<path fill-rule="evenodd" clip-rule="evenodd" d="M32.1901 66.8061L32.1901 66.8062C32.0245 67.5358 31.859 68.2653 31.7036 68.9963C31.5532 69.7027 31.4176 70.4015 31.5606 71.1482C31.9378 73.1412 34.2457 73.845 35.762 72.7275C36.2354 72.3793 36.4746 71.8874 36.6102 71.3173C36.9899 69.7103 37.3819 68.1058 37.7739 66.5014L37.7741 66.5006C38.499 63.5265 39.9535 57.581 39.9535 57.581L40.0374 57.2959C40.0374 57.2959 40.203 56.9013 40.289 56.6412C40.3626 56.4189 40.4146 56.249 40.4541 56.0648C40.5502 58.252 40.4984 60.4418 40.3653 62.634C40.2235 64.9759 40.1106 67.3198 39.9977 69.6638C39.93 71.0694 39.8623 72.475 39.7883 73.8803C39.6967 75.6443 39.6012 77.788 39.5047 79.9541L39.5047 79.9546L39.5047 79.9548C39.4158 81.9517 39.326 83.9675 39.2376 85.7224C39.2069 86.3309 39.6915 86.8421 40.3008 86.8421H45.835C46.3928 86.8421 46.8552 86.4102 46.899 85.8542C46.9642 85.026 47.0289 84.3114 47.0933 83.6004L47.0933 83.6003C47.186 82.5766 47.2781 81.5602 47.3701 80.2225C47.3884 79.9543 47.4027 79.6847 47.4169 79.4158L47.4169 79.4149C47.4218 79.3224 47.4267 79.23 47.4317 79.1377L47.6093 79.1226C47.629 79.2739 47.6513 79.4253 47.6737 79.5767L47.6737 79.577C47.721 79.8975 47.7683 80.2183 47.7917 80.5404C47.8739 81.7115 47.9547 82.6627 48.035 83.6076L48.035 83.6077L48.035 83.6078C48.0962 84.3279 48.1571 85.0443 48.2181 85.8518C48.2601 86.4089 48.723 86.8421 49.2817 86.8421H54.8199C55.428 86.8421 55.9121 86.3332 55.8822 85.7259C55.7655 83.359 55.6496 80.781 55.5337 78.2031L55.5337 78.2029C55.3993 75.2135 55.265 72.2242 55.1294 69.564C55.0609 68.2186 54.9913 66.8735 54.9214 65.5285L50.8186 61.9999H48.0864C46.5506 61.9999 45.4614 60.7234 45.4614 59.3454V51.6545C45.4614 50.2765 46.5506 48.9999 48.0864 48.9999H51.8364C53.3722 48.9999 54.4614 50.2765 54.4614 51.6545V52.4352C54.5026 52.4684 54.5433 52.5023 54.5837 52.537L60.7803 57.8663C60.7306 57.6536 60.6942 57.5029 60.6573 57.3501L60.6572 57.35L60.6572 57.3499C60.5397 56.8642 60.4171 56.3568 59.8485 53.7666C59.7047 53.1081 59.5727 52.4473 59.4407 51.7863L59.4407 51.7862C59.2966 51.0647 59.1525 50.3431 58.993 49.6243C58.8352 48.9179 58.6256 48.2242 58.4086 47.5329C58.3046 47.2049 58.1603 46.8881 58.0168 46.5729L58.0168 46.5729L58.0163 46.5718C57.9933 46.5213 57.9703 46.4709 57.9475 46.4204C57.4224 45.2625 56.5619 44.5889 55.2921 44.5082C54.19 44.4376 40.1483 44.4249 39.4752 44.483C38.3509 44.5813 37.5866 45.1994 37.0737 46.206C36.5214 47.2908 36.1787 48.4487 35.9198 49.6293C35.1892 52.9727 34.468 56.3171 33.7466 59.6619L33.7466 59.6621L33.7465 59.6622C33.3554 61.476 32.9642 63.2899 32.5715 65.1038C32.4475 65.6719 32.3188 66.2391 32.1901 66.8061ZM52.4377 51.4753C52.3633 51.2009 52.1223 50.9999 51.8364 50.9999H48.0864C47.7412 50.9999 47.4614 51.293 47.4614 51.6545V53.4811C47.5628 53.3323 47.6736 53.1876 47.7937 53.0479C48.9794 51.6693 50.7757 51.1265 52.4377 51.4753ZM47.4614 58.8951V59.3454C47.4614 59.7069 47.7412 59.9999 48.0864 59.9999H48.4931L48.3047 59.8378C47.9758 59.555 47.6944 59.2374 47.4614 58.8951ZM51.5603 59.9999L49.6088 58.3215C48.4301 57.3078 48.2964 55.5306 49.3101 54.352C50.1086 53.4235 51.3811 53.1435 52.4614 53.562V59.3454C52.4614 59.7069 52.1816 59.9999 51.8364 59.9999H51.5603ZM53.3363 61.5273C54.0337 61.0327 54.4614 60.209 54.4614 59.3454V55.0698L60.8691 60.5806C61.1675 60.8373 61.3989 61.1429 61.5617 61.4753C61.598 61.7439 61.6129 62.0157 61.5904 62.2781C61.4991 63.3578 61.0134 64.1928 59.9754 64.6066C58.4147 65.2297 56.8884 64.4603 56.4693 62.8053C56.2044 61.7636 55.9567 60.717 55.7089 59.6704L55.7089 59.6704C55.5577 59.0315 55.4064 58.3926 55.2513 57.7548C54.8954 56.2946 54.9937 56.9406 55.0935 57.5961L55.0935 57.5961C55.1941 58.2576 55.2963 58.9289 54.9347 57.4553L54.9346 57.4548C54.8951 57.2984 54.8557 57.142 54.799 56.9932C54.764 56.9021 54.7188 56.8153 54.6561 56.6948L54.6561 56.6948C54.6215 56.6283 54.5816 56.5516 54.5351 56.4584C54.5351 56.682 54.5329 56.8854 54.5307 57.0755V57.0756C54.5266 57.4429 54.523 57.7604 54.5376 58.078C54.6161 59.6413 54.6967 61.2042 54.7778 62.7671L53.3363 61.5273Z" fill="white"/>
<path d="M53.7671 24.5962L52.0508 28.8333C51.957 29.0747 51.6754 29.1954 51.4206 29.1015C51.2195 29.0211 51.1122 28.8333 51.1256 28.6322L51.3536 24.0733C51.3938 23.376 51.9838 22.8531 52.6676 22.8799C53.3649 22.9201 53.8878 23.5101 53.861 24.1939C53.8476 24.328 53.8074 24.4621 53.7671 24.5962Z" fill="white"/>
<path fill-rule="evenodd" clip-rule="evenodd" d="M57.9907 22.625H60.7932C61.1016 22.625 61.3965 22.9334 61.3831 23.215C61.3831 23.5473 61.1223 23.7735 61.117 23.7781C61.1117 23.7827 61.122 23.7737 61.117 23.7781L54.3972 30.2679C54.1827 30.4959 53.8207 30.4959 53.6061 30.2679C53.4318 30.0936 53.405 29.8389 53.5123 29.6243C53.5123 29.6243 56.7169 23.6306 56.9717 23.1613C57.2265 22.692 57.7762 22.625 57.9907 22.625Z" fill="white"/>
<path d="M60.19 31.0185L55.8456 32.4264C55.5908 32.5069 55.3226 32.3728 55.2422 32.118C55.1751 31.9169 55.2556 31.7024 55.4031 31.5817L59.0368 28.8195C59.5866 28.4038 60.3777 28.5111 60.7933 29.0609C61.209 29.6106 61.1017 30.4017 60.552 30.8174C60.4447 30.9113 60.3106 30.9783 60.19 31.0185Z" fill="white"/>
<defs>
<filter id="filter0_dd_8877_14593" x="0.5" y="0" width="93" height="108" filterUnits="userSpaceOnUse" color-interpolation-filters="sRGB">
<feFlood flood-opacity="0" result="BackgroundImageFix"/>
<feColorMatrix in="SourceAlpha" type="matrix" values="0 0 0 0 0 0 0 0 0 0 0 0 0 0 0 0 0 0 127 0" result="hardAlpha"/>
<feOffset dy="2"/>
<feGaussianBlur stdDeviation="1"/>
<feColorMatrix type="matrix" values="0 0 0 0 0 0 0 0 0 0 0 0 0 0 0 0 0 0 0.12 0"/>
<feBlend mode="normal" in2="BackgroundImageFix" result="effect1_dropShadow_8877_14593"/>
<feColorMatrix in="SourceAlpha" type="matrix" values="0 0 0 0 0 0 0 0 0 0 0 0 0 0 0 0 0 0 127 0" result="hardAlpha"/>
<feOffset/>
<feGaussianBlur stdDeviation="1"/>
<feColorMatrix type="matrix" values="0 0 0 0 0 0 0 0 0 0 0 0 0 0 0 0 0 0 0.14 0"/>
<feBlend mode="normal" in2="effect1_dropShadow_8877_14593" result="effect2_dropShadow_8877_14593"/>
<feBlend mode="normal" in="SourceGraphic" in2="effect2_dropShadow_8877_14593" result="shape"/>
</filter>
<linearGradient id="paint0_linear_8877_14593" x1="5.5" y1="5" x2="115.734" y2="105.903" gradientUnits="userSpaceOnUse">
<stop offset="0.220424" stop-color="#33CC99"/>
<stop offset="1" stop-color="#C5DA46"/>
</linearGradient>
<linearGradient id="paint1_linear_8877_14593" x1="5.5" y1="5" x2="115.734" y2="105.903" gradientUnits="userSpaceOnUse">
<stop offset="0.220424" stop-color="#33CC99"/>
<stop offset="1" stop-color="#C5DA46"/>
</linearGradient>
</defs>
</svg>
