<svg width="98" height="108" viewBox="0 0 98 108" fill="none" xmlns="http://www.w3.org/2000/svg">
<rect width="75.7917" height="95.9466" rx="4" transform="matrix(-0.996782 -0.0801591 -0.0801591 0.996782 97.6201 11.3594)" fill="#3A50A3"/>
<g filter="url(#filter0_dd_8877_14633)">
<path fill-rule="evenodd" clip-rule="evenodd" d="M9.5 2H84.5C88.366 2 91.5 5.134 91.5 9V97C91.5 100.866 88.366 104 84.5 104H9.5C5.63401 104 2.5 100.866 2.5 97V9C2.5 5.13401 5.634 2 9.5 2ZM9.5 5C7.29086 5 5.5 6.79086 5.5 9V97C5.5 99.2091 7.29086 101 9.5 101H84.5C86.7091 101 88.5 99.2091 88.5 97V9C88.5 6.79086 86.7091 5 84.5 5H9.5Z" fill="white"/>
</g>
<g clip-path="url(#clip0_8877_14633)">
<path d="M5.5 9C5.5 6.79086 7.29086 5 9.5 5H84.5C86.7091 5 88.5 6.79086 88.5 9V97C88.5 99.2091 86.7091 101 84.5 101H9.5C7.29086 101 5.5 99.2091 5.5 97V9Z" fill="url(#paint0_linear_8877_14633)"/>
</g>
<mask id="mask0_8877_14633" style="mask-type:alpha" maskUnits="userSpaceOnUse" x="5" y="5" width="84" height="96">
<path d="M5.5 9C5.5 6.79086 7.29086 5 9.5 5H84.5C86.7091 5 88.5 6.79086 88.5 9V97C88.5 99.2091 86.7091 101 84.5 101H9.5C7.29086 101 5.5 99.2091 5.5 97V9Z" fill="url(#paint1_linear_8877_14633)"/>
</mask>
<g mask="url(#mask0_8877_14633)">
<path opacity="0.06" d="M5.0152 65.9625C5.71048 65.9625 6.36594 66.1237 6.95502 66.406C7.18567 62.6455 10.3037 59.6674 14.1186 59.6674C15.0379 59.6674 15.9157 59.8418 16.7222 60.1574C17.912 57.1377 20.8524 55 24.2923 55C28.688 55 32.269 58.4897 32.425 62.8515C32.4283 62.8515 32.43 62.8515 32.4333 62.8515C35.7836 62.8515 38.5 65.5705 38.5 68.9258C38.5 72.281 35.7836 75 32.4316 75H5.01353C2.52113 75 0.5 72.9769 0.5 70.4821C0.5 67.9873 2.52114 65.9625 5.0152 65.9625Z" fill="white"/>
<path opacity="0.06" d="M93.1927 78.0973C93.013 74.9283 90.3754 72.4137 87.1501 72.4137C86.4241 72.4137 85.7293 72.5411 85.0863 72.7753C83.6206 70.5053 81.0625 69 78.1553 69C74.2248 69 70.9373 71.7419 70.1146 75.4105C70.0178 75.4071 69.9244 75.4036 69.8276 75.4036C65.2265 75.4036 61.5 79.1204 61.5 83.7018C61.5 88.2832 65.23 92 69.8276 92H90.2025C94.2332 92 97.5 88.7448 97.5 84.7283C97.5 81.7762 95.7301 79.2341 93.1927 78.0973Z" fill="white"/>
<path opacity="0.06" d="M76.1927 26.0973C76.013 22.9283 73.3754 20.4137 70.1501 20.4137C69.4241 20.4137 68.7293 20.5411 68.0863 20.7753C66.6206 18.5053 64.0625 17 61.1553 17C57.2248 17 53.9373 19.7419 53.1146 23.4105C53.0178 23.4071 52.9244 23.4036 52.8276 23.4036C48.2265 23.4036 44.5 27.1204 44.5 31.7018C44.5 36.2832 48.23 40 52.8276 40H73.2025C77.2332 40 80.5 36.7448 80.5 32.7283C80.5 29.7762 78.7301 27.2341 76.1927 26.0973Z" fill="white"/>
</g>
<path fill-rule="evenodd" clip-rule="evenodd" d="M41.8667 82.3964C41.2946 82.3964 40.8391 81.9173 40.868 81.346C40.9385 79.9496 41.0092 78.5532 41.0803 77.1568C41.1441 75.9017 41.2093 74.647 41.2745 73.3924C41.3558 71.8278 41.4372 70.2634 41.5157 68.6983C41.5276 68.4649 41.5246 68.2306 41.5212 67.9607C41.5194 67.8203 41.5175 67.6702 41.5175 67.5056C41.4833 67.5743 41.454 67.6307 41.4285 67.6797C41.3824 67.7684 41.3491 67.8324 41.3234 67.8995C41.2817 68.0091 41.2508 68.1261 41.2236 68.2394C40.6939 70.4 40.1642 72.5606 39.6381 74.7212C39.5225 75.197 39.4095 75.6736 39.2966 76.1502C39.1154 76.9148 38.9342 77.6794 38.742 78.4405C38.4336 79.6592 37.3107 80.2258 36.1624 79.7669C35.3986 79.4622 35.0431 78.8473 34.9741 78.0522C34.9469 77.7345 34.9941 77.3983 35.063 77.0843C35.5151 75.0182 35.9709 72.9532 36.4267 70.8881C36.8213 69.1002 37.2159 67.3122 37.6082 65.5234C37.7197 65.0162 37.8213 64.5072 37.9229 63.9981C38.0245 63.4891 38.1261 62.9801 38.2377 62.4729C38.3519 61.9527 38.508 61.44 38.6676 60.9328C38.7512 60.6671 38.8686 60.4129 38.9849 60.161C38.9922 60.1452 38.9995 60.1293 39.0068 60.1135C39.3932 59.2627 40.0245 58.7648 40.9606 58.7054C41.2411 58.688 41.5213 58.6642 41.8014 58.6404C42.3312 58.5954 42.8604 58.5505 43.3896 58.5493C44.5864 58.5479 45.7842 58.5748 46.9815 58.6017C47.4085 58.6113 47.8354 58.6209 48.2622 58.6292C48.3342 58.6306 48.4061 58.632 48.478 58.6334C49.7393 58.6585 50.9991 58.6836 52.2623 58.5623C52.4701 58.5421 52.6608 58.5257 52.8374 58.5105C54.2516 58.3889 54.755 58.3456 55.8065 57.0525C56.9113 55.6926 57.5063 54.0912 57.7875 52.3634C57.8628 51.9011 57.8998 51.4313 57.9369 50.9621C57.9489 50.8092 57.961 50.6563 57.9744 50.5038C58.0578 49.5526 58.593 48.8578 59.4383 48.6089C60.6664 48.2485 61.9345 49.1235 61.9635 50.4351C61.9835 51.2915 61.8946 52.1591 61.764 53.0062C61.5154 54.6299 61.0256 56.1849 60.2528 57.6321C58.4896 60.9371 56.8392 61.9992 53.1911 62.6624C53.0275 62.6923 52.8647 62.7284 52.692 62.7667C52.5965 62.7878 52.498 62.8096 52.3947 62.8315C52.189 63.4681 52.1266 64.1236 52.0646 64.7752C52.0511 64.9165 52.0377 65.0576 52.0228 65.1983C51.7779 67.4796 51.8033 69.7647 51.9412 72.0553C52.0455 73.7799 52.1286 75.5059 52.2116 77.2321C52.2615 78.2672 52.3113 79.3024 52.3657 80.3373C52.3833 80.6724 52.401 81.0075 52.4189 81.3425C52.4494 81.9151 51.9935 82.3964 51.4201 82.3964H41.8667Z" fill="white"/>
<path d="M42.2061 53.2501C42.2061 53.9217 42.7658 54.4814 43.4374 54.4814H44.2583C44.3702 55.5635 45.303 56.4217 46.4224 56.4217H47.6165C48.7358 56.4217 49.6687 55.5635 49.7806 54.4814H50.6015C51.2731 54.4814 51.8328 53.9217 51.8328 53.2501V51.0859H42.2061V53.2501Z" fill="white"/>
<path d="M55.9733 41.2139C55.9733 36.2513 51.9435 32.2588 47.0181 32.2588C42.0555 32.2588 38.063 36.2886 38.063 41.2139C38.063 41.9602 38.1749 42.6691 38.3242 43.3408C38.6227 44.7214 39.1824 45.9154 40.1152 47.4825C40.7868 48.6019 41.3465 49.0497 41.7197 49.5721H52.3539C52.727 49.0497 53.2867 48.6019 53.9584 47.4825C54.8539 45.8781 55.4509 44.7214 55.7494 43.3408C55.8986 42.6691 55.9733 41.9602 55.9733 41.2139Z" fill="white"/>
<path d="M63.4364 40.0576H60.5633C59.8543 40.0576 59.2573 40.6546 59.2573 41.3636C59.2573 42.0725 59.8543 42.6695 60.5633 42.6695H63.4364C64.1453 42.6695 64.7423 42.0725 64.7423 41.3636C64.7423 40.6546 64.1453 40.0576 63.4364 40.0576Z" fill="white"/>
<path d="M56.6081 33.0427C56.9439 33.0427 57.2797 32.9308 57.5409 32.6696L59.5558 30.6547C60.0782 30.1323 60.0782 29.3114 59.5558 28.8264C59.0335 28.304 58.2126 28.304 57.7275 28.8264L55.7126 30.8413C55.1902 31.3636 55.1902 32.1845 55.7126 32.6696C55.9358 32.9308 56.2716 33.0427 56.6081 33.0427Z" fill="white"/>
<path d="M47.0184 29.0876C47.7273 29.0876 48.3243 28.4906 48.3243 27.7816V24.9085C48.3243 24.1995 47.7273 23.6025 47.0184 23.6025C46.3094 23.6025 45.7124 24.1995 45.7124 24.9085V27.7816C45.7117 28.4906 46.3087 29.0876 47.0184 29.0876Z" fill="white"/>
<path d="M36.4958 32.6696C36.757 32.9308 37.0929 33.0427 37.4287 33.0427C37.7645 33.0427 38.1003 32.9308 38.3615 32.6696C38.8839 32.1472 38.8839 31.3263 38.3615 30.8413L36.3466 28.8264C35.8242 28.304 35.0033 28.304 34.5183 28.8264C33.9959 29.3487 33.9959 30.1696 34.5183 30.6547L36.4958 32.6696Z" fill="white"/>
<path d="M34.743 41.3265C34.743 40.6175 34.146 40.0205 33.4371 40.0205H30.5633C29.8543 40.0205 29.2573 40.6175 29.2573 41.3265C29.2573 42.0354 29.8543 42.6324 30.5633 42.6324H33.4364C34.1827 42.6324 34.743 42.0727 34.743 41.3265Z" fill="white"/>
<defs>
<filter id="filter0_dd_8877_14633" x="0.5" y="0" width="93" height="108" filterUnits="userSpaceOnUse" color-interpolation-filters="sRGB">
<feFlood flood-opacity="0" result="BackgroundImageFix"/>
<feColorMatrix in="SourceAlpha" type="matrix" values="0 0 0 0 0 0 0 0 0 0 0 0 0 0 0 0 0 0 127 0" result="hardAlpha"/>
<feOffset dy="2"/>
<feGaussianBlur stdDeviation="1"/>
<feColorMatrix type="matrix" values="0 0 0 0 0 0 0 0 0 0 0 0 0 0 0 0 0 0 0.12 0"/>
<feBlend mode="normal" in2="BackgroundImageFix" result="effect1_dropShadow_8877_14633"/>
<feColorMatrix in="SourceAlpha" type="matrix" values="0 0 0 0 0 0 0 0 0 0 0 0 0 0 0 0 0 0 127 0" result="hardAlpha"/>
<feOffset/>
<feGaussianBlur stdDeviation="1"/>
<feColorMatrix type="matrix" values="0 0 0 0 0 0 0 0 0 0 0 0 0 0 0 0 0 0 0.14 0"/>
<feBlend mode="normal" in2="effect1_dropShadow_8877_14633" result="effect2_dropShadow_8877_14633"/>
<feBlend mode="normal" in="SourceGraphic" in2="effect2_dropShadow_8877_14633" result="shape"/>
</filter>
<linearGradient id="paint0_linear_8877_14633" x1="5.5" y1="5" x2="100.493" y2="87.129" gradientUnits="userSpaceOnUse">
<stop stop-color="#31408F"/>
<stop offset="1" stop-color="#6699FF"/>
</linearGradient>
<linearGradient id="paint1_linear_8877_14633" x1="79" y1="99.5" x2="-1.37725" y2="14.7368" gradientUnits="userSpaceOnUse">
<stop stop-color="#FF7F96"/>
<stop offset="1" stop-color="#DC2567"/>
</linearGradient>
<clipPath id="clip0_8877_14633">
<rect width="83" height="96" fill="white" transform="translate(5.5 5)"/>
</clipPath>
</defs>
</svg>
