<svg width="98" height="108" viewBox="0 0 98 108" fill="none" xmlns="http://www.w3.org/2000/svg">
<rect width="75.7917" height="94.9466" rx="4" transform="matrix(-0.996782 -0.0801591 -0.0801591 0.996782 97.6201 12.3594)" fill="#DE2A69"/>
<g filter="url(#filter0_dd_8877_14571)">
<path fill-rule="evenodd" clip-rule="evenodd" d="M9.5 2H84.5C88.366 2 91.5 5.134 91.5 9V97C91.5 100.866 88.366 104 84.5 104H9.5C5.63401 104 2.5 100.866 2.5 97V9C2.5 5.13401 5.634 2 9.5 2ZM9.5 5C7.29086 5 5.5 6.79086 5.5 9V97C5.5 99.2091 7.29086 101 9.5 101H84.5C86.7091 101 88.5 99.2091 88.5 97V9C88.5 6.79086 86.7091 5 84.5 5H9.5Z" fill="white"/>
</g>
<path d="M5.5 9C5.5 6.79086 7.29086 5 9.5 5H84.5C86.7091 5 88.5 6.79086 88.5 9V97C88.5 99.2091 86.7091 101 84.5 101H9.5C7.29086 101 5.5 99.2091 5.5 97V9Z" fill="url(#paint0_linear_8877_14571)"/>
<mask id="mask0_8877_14571" style="mask-type:alpha" maskUnits="userSpaceOnUse" x="5" y="5" width="84" height="96">
<path d="M5.5 9C5.5 6.79086 7.29086 5 9.5 5H84.5C86.7091 5 88.5 6.79086 88.5 9V97C88.5 99.2091 86.7091 101 84.5 101H9.5C7.29086 101 5.5 99.2091 5.5 97V9Z" fill="url(#paint1_radial_8877_14571)"/>
</mask>
<g mask="url(#mask0_8877_14571)">
<path opacity="0.08" d="M143.235 206.793C134.251 206.158 125.273 205.522 116.29 204.887C115.676 203.269 115.158 201.61 114.441 200.05C105.605 180.876 96.7281 161.717 87.8866 142.549C76.9167 118.759 65.9715 94.9526 54.9962 71.1563C54.7006 70.5185 54.5622 69.5686 53.241 69.81C53.4787 70.6846 53.6592 71.4553 53.8934 72.2122C66.6493 112.603 79.4231 152.989 92.143 193.39C93.1797 196.671 94.6822 199.844 94.8615 203.37C87.9527 202.881 81.0438 202.393 74.1349 201.904C73.8674 200.786 73.5469 199.671 73.3391 198.54C66.5219 161.307 59.7223 124.075 52.911 86.8429C51.8648 81.1226 50.7945 75.4124 49.7303 69.6967C48.9269 71.3379 48.8866 72.9038 48.9703 74.4608C49.5203 84.3703 50.1237 94.2718 50.6679 104.181C51.973 127.91 53.3014 151.64 54.5297 175.376C54.9635 183.773 55.9863 192.147 55.4717 200.583C49.2525 200.143 43.0334 199.703 36.8201 199.263C36.8355 197.884 36.7807 196.499 36.8783 195.119C39.8219 153.354 42.7831 111.59 45.7442 69.826C45.8319 68.5866 45.9196 67.3472 46.0073 66.1078C44.2414 71.306 43.2161 76.4977 42.185 81.6891C38.0375 102.612 33.9193 123.536 29.7255 144.449C26.1476 162.304 22.4825 180.147 18.8582 197.992C12.4111 197.536 5.964 197.08 -0.488947 196.623C-0.626633 194.833 0.0983227 193.222 0.636248 191.597C3.75206 182.182 6.91966 172.782 10.0643 163.375C19.3186 135.699 28.5784 108.029 37.8151 80.3517C39.261 76.024 40.5695 71.6454 41.941 67.2889C41.2446 67.3337 40.9713 67.5435 40.8404 67.8162C25.2143 100.365 9.52049 132.873 -5.95783 165.49C-10.6523 175.381 -15.9385 185.001 -19.8369 195.266C-27.6693 194.712 -35.4958 194.158 -43.3282 193.604C-42.9866 191.848 -41.8737 190.481 -40.9432 189.037C-17.1551 152.219 6.64391 115.413 30.4316 78.6013C33.2681 74.2133 36.0423 69.7916 38.8391 65.3832C37.6807 65.6479 37.004 66.2463 36.4266 66.934C26.4185 78.8637 16.4388 90.8072 6.42523 102.731C-10.7739 123.223 -28.0006 143.69 -45.1885 164.189C-52.8939 173.379 -60.5324 182.621 -68.2048 191.843C-78.796 191.094 -89.3931 190.344 -99.9844 189.595C-99.6504 188.279 -98.6248 187.482 -97.7006 186.625C-80.2085 170.377 -62.7445 154.11 -45.2144 137.907C-24.0456 118.347 -2.81666 98.8511 18.3797 79.3172C24.2806 73.877 30.1381 68.3868 36.1429 62.807C34.9724 62.3306 34.5408 63.0344 34.0334 63.3981C17.1372 75.4573 0.251572 87.5349 -16.6391 99.6004C-38.6958 115.354 -60.758 131.102 -82.8035 146.863C-99.9733 159.137 -117.132 171.425 -134.291 183.706C-135.51 184.578 -136.79 185.404 -137.293 186.943C-143.629 186.494 -149.955 185.988 -156.292 185.645C-157.784 185.563 -158.067 185.232 -157.938 183.749C-157.325 176.501 -156.865 169.242 -156.351 161.987C-154.367 161.675 -152.664 160.679 -150.941 159.749C-126.491 146.533 -102.057 133.291 -77.6015 120.086C-41.7797 100.741 -5.94245 81.4268 29.8794 62.0818C30.777 61.5989 31.8924 61.2783 32.581 59.6819C30.7608 60.3346 29.4552 60.771 28.1747 61.2679C14.7354 66.4802 1.30586 71.7225 -12.1442 76.9223C-49.0402 91.1914 -85.9307 105.467 -122.852 119.675C-133.287 123.69 -143.573 128.091 -154.205 131.581C-153.505 121.678 -152.804 111.775 -152.103 101.865C-150.398 101.598 -148.66 101.451 -146.992 101.04C-110.377 91.9744 -73.7645 82.8791 -37.1528 73.7895C-15.2024 68.3393 6.74244 62.8829 28.6882 57.4147C30.1412 57.0534 31.567 56.5785 33.8824 55.9022C32.6135 55.6537 32.3859 55.5495 32.1784 55.5759C-17.3173 61.4506 -66.8088 67.3491 -116.303 73.2063C-127.642 74.5485 -138.993 75.737 -150.337 76.9965C-149.734 68.4729 -149.131 59.9493 -148.528 51.4257C-140.804 51.4376 -133.083 51.414 -125.363 51.4727C-105.882 51.6174 -86.399 51.815 -66.9186 51.9655C-38.2151 52.1929 -9.51665 52.4082 19.1822 52.6176C23.3275 52.6465 27.473 52.5873 31.6157 52.5691C29.7205 51.5419 27.8157 51.1486 25.8893 50.8948C1.66136 47.688 -22.569 44.5164 -46.7965 41.3038C-61.6544 39.3359 -76.4953 37.2928 -91.3519 35.3073C-109.857 32.8345 -128.365 30.391 -146.877 27.9295C-146.258 19.1779 -145.638 10.4263 -145.019 1.66884C-85.2966 17.5574 -25.5688 33.4464 34.1532 49.335C29.3905 46.6596 24.434 44.5639 19.4483 42.5484C-18.499 27.1783 -56.4705 11.8182 -94.4487 -3.53056C-110.708 -10.104 -126.975 -16.6487 -143.235 -23.2105C-142.55 -32.8857 -141.865 -42.561 -141.181 -52.2363C-139.634 -52.0975 -138.353 -51.2724 -137.053 -50.5459C-110.479 -35.675 -83.9101 -20.7987 -57.3421 -5.91654C-28.5589 10.2034 0.22299 26.341 29.0195 42.4384C29.9404 42.9559 30.7673 44.0544 32.307 43.3819C31.7342 42.0958 30.5711 41.5141 29.5996 40.7991C15.1113 30.1206 0.590082 19.4928 -13.8798 8.80388C-45.0526 -14.2242 -76.1802 -37.3079 -107.366 -60.3251C-117.855 -68.0708 -128.443 -75.6708 -138.98 -83.3317C-138.467 -90.5867 -137.901 -97.8379 -137.487 -105.1C-137.399 -106.592 -137.073 -106.886 -135.584 -106.751C-129.724 -106.225 -123.845 -105.874 -117.971 -105.458C-116.937 -104.374 -115.948 -103.241 -114.87 -102.213C-94.1047 -82.3595 -73.3269 -62.5228 -52.5495 -42.6803C-25.5214 -16.8668 1.50002 8.958 28.554 34.7381C30.4639 36.5536 32.099 38.7668 34.9902 40.2463C34.5711 38.3659 33.6282 37.4943 32.839 36.5278C24.671 26.5198 16.4847 16.5224 8.34184 6.4927C-14.6454 -21.8022 -37.6635 -50.0757 -60.5631 -78.4467C-67.0769 -86.5103 -74.0005 -94.2622 -79.9719 -102.769C-69.1469 -102.003 -58.3218 -101.237 -47.4968 -100.471C-46.7005 -98.9402 -46.0081 -97.3518 -45.1012 -95.8893C-37.4966 -83.6475 -29.8424 -71.4433 -22.2195 -59.2119C-2.33692 -27.306 17.5332 4.61081 37.428 36.5117C37.8078 37.1203 37.9613 38.1064 39.0625 37.9846C39.4598 37.102 38.9455 36.4017 38.6252 35.6975C27.0909 10.669 15.5382 -14.3491 4.00351 -39.3719C-5.11683 -59.165 -14.213 -78.9682 -23.3212 -98.7664C-15.4888 -98.2122 -7.66225 -97.6584 0.170121 -97.1041C0.49675 -96.2409 0.865518 -95.3922 1.14413 -94.5147C12.7202 -57.8735 24.2842 -21.2272 35.8545 15.4136C38.2341 22.9614 40.6378 30.4992 43.0295 38.042C43.3284 37.9692 43.6331 37.8967 43.932 37.8239C35.7912 -6.68813 27.6572 -51.2114 19.5169 -95.7293C26.1978 -95.2565 32.8728 -94.7842 39.5537 -94.3114C42.1094 -48.9902 44.6648 -3.66308 47.2205 41.6582C50.7545 -1.31092 53.7938 -44.2621 56.8443 -87.2067C56.9825 -89.1593 57.2898 -91.094 57.5156 -93.0404C63.7348 -92.6004 69.9539 -92.1603 76.1672 -91.7206C76.3187 -87.3856 74.9077 -83.3022 74.0838 -79.1303C67.7839 -47.2146 61.4372 -15.3022 55.1084 16.6056C53.5571 24.4158 52.0004 32.2198 50.4433 40.0296C51.0993 39.7235 51.2986 39.3146 51.4403 38.8898C58.8059 16.9025 66.166 -5.09107 73.5374 -27.078C80.618 -48.1924 87.7211 -69.2935 94.8129 -90.4012C101.722 -89.9123 108.631 -89.4235 115.54 -88.9346C114.737 -84.6553 112.293 -81.0798 110.46 -77.2554C94.8194 -44.5847 79.1165 -11.9478 63.4416 20.7088C60.3205 27.2093 57.2567 33.7316 54.0744 40.4334C55.1957 40.36 55.4133 39.7761 55.7165 39.3099C75.0899 9.25938 94.4412 -20.8104 113.837 -50.8476C121.721 -63.0569 129.705 -75.1944 137.645 -87.3645C146.395 -86.7453 155.145 -86.1262 163.901 -85.5066C163.662 -84.1957 162.836 -83.2377 162.004 -82.2684C158.995 -78.7681 155.976 -75.2802 153.006 -71.7478C123.811 -37.0515 94.6206 -2.34316 65.4368 32.3598C62.5826 35.7535 59.7622 39.1673 56.6873 42.8568C58.3038 42.842 58.7616 41.9343 59.4029 41.3393C68.8812 32.58 78.3432 23.802 87.8103 15.036C101.521 2.34011 115.22 -10.3625 128.94 -23.0401C150.718 -43.1556 172.512 -63.2524 194.301 -83.3554C207.657 -82.4103 221.019 -81.4648 234.375 -80.5198C234.073 -79.5717 233.301 -79.0446 232.552 -78.5042C223.094 -71.6941 213.664 -64.8528 204.174 -58.0861C175.994 -37.9887 147.782 -17.929 119.596 2.16795C104.186 13.1572 88.8023 24.1778 73.4131 35.198C68.6484 38.6093 63.9102 42.0636 59.1556 45.4992C75.1693 37.6077 90.8036 29.1842 106.423 20.7302C129.866 8.04147 153.3 -4.67733 176.749 -17.354C196.136 -27.8386 215.492 -38.3842 234.982 -48.6734C240.145 -51.3986 244.928 -54.9849 250.724 -56.449C249.957 -45.622 249.191 -34.7951 248.425 -23.9681C227.433 -15.865 206.44 -7.76187 185.453 0.347523C150.467 13.8587 115.481 27.3641 80.4998 40.8932C74.3635 43.2675 68.2573 45.7143 62.1415 48.1311C64.2641 48.434 66.1597 48.0453 68.0372 47.5788C122.236 34.0935 176.426 20.5722 230.643 7.17033C235.88 5.8782 241.007 3.99072 246.469 3.67803C245.833 12.6635 245.198 21.6431 244.562 30.6285C224.734 32.8976 204.903 35.1311 185.083 37.4536C153.689 41.131 122.296 44.8731 90.9048 48.5918C80.8638 49.7791 70.8216 50.9838 60.7797 52.1827C62.3227 52.7913 63.8659 52.9828 65.4039 52.9976C71.3982 53.0457 77.3987 53.0062 83.393 53.0543C99.4266 53.1842 115.462 53.3671 131.496 53.4911C159.871 53.7129 188.242 53.9166 216.619 54.1033C225.38 54.1592 234.141 54.1211 242.899 54.1298C242.296 62.6534 241.693 71.177 241.089 79.7006C239.593 79.5889 238.092 79.5531 236.614 79.3545C205.064 75.1068 173.521 70.8477 141.972 66.5824C125.284 64.3264 108.606 62.0181 91.9166 59.7796C81.9892 58.4485 72.0439 57.2042 62.1073 55.9194C62.9415 56.7481 63.8815 57.079 64.8503 57.3356C107.547 68.6822 150.256 80.0121 192.951 91.3763C208.444 95.4984 223.906 99.7182 239.383 103.892C238.748 112.878 238.112 121.857 237.476 130.843C179.278 107.283 121.08 83.7231 62.8761 60.1629C62.7356 60.4879 62.5948 60.8187 62.4543 61.1436C71.398 66.1654 80.3409 71.1989 89.2917 76.2035C129.265 98.5617 169.232 120.92 209.218 143.255C217.971 148.146 226.467 153.518 235.564 157.787C234.782 168.842 233.999 179.903 233.217 190.958C232.428 190.485 231.594 190.067 230.857 189.521C216.826 179.193 202.794 168.864 188.789 158.502C146.945 127.556 105.114 96.5884 63.2696 65.6431C62.0972 64.7787 60.8467 64.0204 59.6351 63.212C60.3965 64.9874 61.5128 66.1475 62.6741 67.252C82.5571 86.2027 102.453 105.143 122.342 124.088C150.497 150.904 178.671 177.709 206.783 204.569C209.187 206.866 211.885 208.925 213.696 211.803C200.106 210.841 186.522 209.88 172.932 208.918C171.629 207.157 170.402 205.331 169.024 203.636C152.922 183.883 136.764 164.168 120.681 144.399C100.734 119.886 80.8484 95.3238 60.8892 70.8095C59.9324 69.6372 59.1515 68.1366 57.4757 67.4951C57.1468 68.9055 58.0545 69.6101 58.5715 70.4399C69.5674 88.0509 80.5758 105.651 91.5838 123.257C106.502 147.127 121.468 170.964 136.282 194.891C138.698 198.776 141.52 202.471 143.235 206.793Z" fill="white"/>
</g>
<path d="M46.6182 36.146C48.0963 36.146 49.514 35.5591 50.5592 34.5138C51.6041 33.4686 52.1914 32.0513 52.1914 30.5732C52.1914 29.0951 51.6041 27.6774 50.5592 26.6322C49.514 25.5873 48.0963 25 46.6182 25C45.1402 25 43.7228 25.5873 42.6776 26.6322C41.6323 27.6774 41.0454 29.0951 41.0454 30.5732C41.0454 32.0513 41.6323 33.4686 42.6776 34.5138C43.7229 35.5591 45.1402 36.146 46.6182 36.146Z" fill="white"/>
<path d="M39.0911 55.9178C37.8368 56.3824 36.4323 56.1729 35.3681 55.3631C34.6333 54.8025 33.9342 54.1959 33.2753 53.5479L28.5 68.9369C28.5 68.9369 30.9513 69.2145 34.5934 69.5498L39.0911 55.9178Z" fill="white"/>
<path d="M52.4106 55.4677C52.375 55.357 52.3324 55.249 52.2832 55.1437C53.0347 50.9813 53.8674 46.7727 54.769 42.587C56.3531 43.5927 57.3129 44.7143 57.3937 45.6973C57.5095 46.9345 56.3182 48.5648 54.0408 50.3223C53.4829 50.742 53.1283 51.378 53.0644 52.0733C53.0006 52.7686 53.2336 53.4588 53.7059 53.973C54.1778 54.4875 54.8456 54.7782 55.5436 54.7739C56.0872 54.7747 56.6156 54.5958 57.0469 54.2652C60.8275 51.3745 62.6084 48.3569 62.3425 45.2815V45.2811C62.1083 43.2785 61.1354 41.4357 59.614 40.113C58.4879 39.0785 57.2231 38.2072 55.8561 37.5231C55.6343 37.4123 55.3962 37.338 55.1508 37.3032C54.9103 37.2157 54.6548 37.1762 54.3993 37.1874H38.8358C38.5757 37.1801 38.3163 37.223 38.0728 37.3148C37.8424 37.3512 37.6198 37.4251 37.4139 37.5343C36.0446 38.2106 34.7795 39.0789 33.656 40.113C32.1388 41.4377 31.1698 43.2805 30.9387 45.2812C30.6612 48.3569 32.442 51.3746 36.2226 54.2649V54.2653C36.7453 54.6609 37.4026 54.8343 38.0522 54.7476C38.7018 54.6609 39.291 54.3214 39.6913 53.8026C40.0858 53.2788 40.2573 52.6203 40.1687 51.9708C40.0796 51.3212 39.7378 50.7327 39.2175 50.3339C36.9052 48.5996 35.7488 46.9694 35.8645 45.7089C35.9455 44.7376 36.8936 43.6161 38.4661 42.6103C39.3449 46.7266 40.1655 50.8658 40.9173 54.9588H40.917C40.86 55.0749 40.8097 55.1946 40.7667 55.3169L33.8986 76.129C33.6323 76.9343 33.6969 77.8119 34.0787 78.5691C34.4608 79.3263 35.1278 79.9001 35.9338 80.1645C36.2574 80.2745 36.5977 80.3291 36.9395 80.3263C37.6073 80.3314 38.2604 80.1277 38.8075 79.7445C39.3545 79.3612 39.7687 78.8169 39.9921 78.1874L46.571 58.184L53.2076 78.3024C53.4178 78.9427 53.8251 79.5002 54.3713 79.895C54.9175 80.2895 55.5749 80.5013 56.2485 80.4993C56.5903 80.4962 56.9294 80.4417 57.2546 80.3375C58.0602 80.0731 58.7276 79.4994 59.1093 78.7421C59.491 77.9849 59.5561 77.1073 59.2893 76.302L52.4106 55.4677ZM49.3116 48.6922L46.6408 47.3163L44.0161 48.6922L44.5136 45.8131L42.3743 43.7087L45.2995 43.2809L46.6177 40.6217L47.9243 43.2809L50.8495 43.7087L48.757 45.8131L49.3116 48.6922Z" fill="white"/>
<path d="M44.0742 70.2547C45.7548 70.3472 47.4426 70.4165 49.1387 70.463L46.5721 62.6816L44.0742 70.2547Z" fill="white"/>
<path d="M57.9033 55.3634C57.239 55.8721 56.4275 56.152 55.591 56.1613C55.0711 56.1621 54.5562 56.0599 54.0762 55.8605L58.7938 70.3249C61.0929 70.2583 63.363 69.7887 65.5001 68.9375L60.297 53.2471C59.5487 54.0066 58.7493 54.7139 57.9034 55.3632L57.9033 55.3634Z" fill="white"/>
<defs>
<filter id="filter0_dd_8877_14571" x="0.5" y="0" width="93" height="108" filterUnits="userSpaceOnUse" color-interpolation-filters="sRGB">
<feFlood flood-opacity="0" result="BackgroundImageFix"/>
<feColorMatrix in="SourceAlpha" type="matrix" values="0 0 0 0 0 0 0 0 0 0 0 0 0 0 0 0 0 0 127 0" result="hardAlpha"/>
<feOffset dy="2"/>
<feGaussianBlur stdDeviation="1"/>
<feColorMatrix type="matrix" values="0 0 0 0 0 0 0 0 0 0 0 0 0 0 0 0 0 0 0.12 0"/>
<feBlend mode="normal" in2="BackgroundImageFix" result="effect1_dropShadow_8877_14571"/>
<feColorMatrix in="SourceAlpha" type="matrix" values="0 0 0 0 0 0 0 0 0 0 0 0 0 0 0 0 0 0 127 0" result="hardAlpha"/>
<feOffset/>
<feGaussianBlur stdDeviation="1"/>
<feColorMatrix type="matrix" values="0 0 0 0 0 0 0 0 0 0 0 0 0 0 0 0 0 0 0.14 0"/>
<feBlend mode="normal" in2="effect1_dropShadow_8877_14571" result="effect2_dropShadow_8877_14571"/>
<feBlend mode="normal" in="SourceGraphic" in2="effect2_dropShadow_8877_14571" result="shape"/>
</filter>
<linearGradient id="paint0_linear_8877_14571" x1="79" y1="99.5" x2="-1.37725" y2="14.7368" gradientUnits="userSpaceOnUse">
<stop stop-color="#FF7F96"/>
<stop offset="1" stop-color="#DC2567"/>
</linearGradient>
<radialGradient id="paint1_radial_8877_14571" cx="0" cy="0" r="1" gradientUnits="userSpaceOnUse" gradientTransform="translate(48.314 50.4212) rotate(-132.213) scale(66.5129 65.815)">
<stop offset="0.0506731" stop-color="#FF7F96"/>
<stop offset="1" stop-color="#DC2567" stop-opacity="0"/>
</radialGradient>
</defs>
</svg>
